<?xml version="1.0" encoding="UTF-8" standalone="no"?>
<!-- Created with Inkscape (http://www.inkscape.org/) -->

<svg
   xmlns:dc="http://purl.org/dc/elements/1.1/"
   xmlns:cc="http://creativecommons.org/ns#"
   xmlns:rdf="http://www.w3.org/1999/02/22-rdf-syntax-ns#"
   xmlns:svg="http://www.w3.org/2000/svg"
   xmlns="http://www.w3.org/2000/svg"
   xmlns:sodipodi="http://sodipodi.sourceforge.net/DTD/sodipodi-0.dtd"
   xmlns:inkscape="http://www.inkscape.org/namespaces/inkscape"
   id="svg2"
   version="1.1"
   inkscape:version="0.48.3.1 r9886"
   width="990"
   height="765"
   xml:space="preserve"
   sodipodi:docname="chapter07.pdf"><metadata
     id="metadata8"><rdf:RDF><cc:Work
         rdf:about=""><dc:format>image/svg+xml</dc:format><dc:type
           rdf:resource="http://purl.org/dc/dcmitype/StillImage" /><dc:title></dc:title></cc:Work></rdf:RDF></metadata><defs
     id="defs6" /><sodipodi:namedview
     pagecolor="#ffffff"
     bordercolor="#666666"
     borderopacity="1"
     objecttolerance="10"
     gridtolerance="10"
     guidetolerance="10"
     inkscape:pageopacity="0"
     inkscape:pageshadow="2"
     inkscape:window-width="1366"
     inkscape:window-height="743"
     id="namedview4"
     showgrid="false"
     inkscape:zoom="2.394377"
     inkscape:cx="227.20281"
     inkscape:cy="346.33116"
     inkscape:window-x="0"
     inkscape:window-y="25"
     inkscape:window-maximized="1"
     inkscape:current-layer="g10" /><g
     id="g10"
     inkscape:groupmode="layer"
     inkscape:label="chapter07"
     transform="matrix(0,1.25,1.25,0,0,0)"><path
       d="m 306.86014,153.6775 c 0,0 0,0 -0.148,0.571 -0.148,0.572 -0.444,1.715 -0.814,2.204 -0.37,0.49 -0.814,0.327 -1.221,-0.598 -0.407,-0.925 -0.777,-2.612 -1.258,-3.429 -0.481,-0.816 -1.073,-0.761 -1.406,0.055 -0.333,0.816 -0.407,2.394 -0.74,3.21 -0.333,0.817 -0.925,0.871 -1.295,0.436 -0.37,-0.436 -0.518,-1.361 -0.888,-1.823 -0.37,-0.463 -0.962,-0.463 -1.332,0.19 -0.37,0.653 -0.518,1.959 -0.592,2.612 -0.074,0.653 -0.074,0.653 -0.074,0.653"
       style="fill:#ffffff;fill-opacity:1;fill-rule:evenodd;stroke:none"
       id="path236"
       inkscape:connector-curvature="0" /><path
       d="m 306.86014,166.2715 c 0,0 0,0 -0.148,0.571 -0.148,0.572 -0.444,1.714 -0.814,2.204 -0.37,0.49 -0.814,0.327 -1.221,-0.599 -0.407,-0.925 -0.777,-2.612 -1.258,-3.428 -0.481,-0.816 -1.073,-0.762 -1.406,0.055 -0.333,0.816 -0.407,2.394 -0.74,3.21 -0.333,0.816 -0.925,0.871 -1.295,0.436 -0.37,-0.436 -0.518,-1.361 -0.888,-1.823 -0.37,-0.463 -0.962,-0.463 -1.332,0.19 -0.37,0.653 -0.518,1.959 -0.592,2.612 -0.074,0.653 -0.074,0.653 -0.074,0.653"
       style="fill:#ffffff;fill-opacity:1;fill-rule:evenodd;stroke:none"
       id="path240"
       inkscape:connector-curvature="0" /><path
       d="m 306.86014,176.2295 c 0,0 0,0 -0.148,0.571 -0.148,0.572 -0.444,1.715 -0.814,2.204 -0.37,0.49 -0.814,0.327 -1.221,-0.598 -0.407,-0.925 -0.777,-2.612 -1.258,-3.429 -0.481,-0.816 -1.073,-0.761 -1.406,0.055 -0.333,0.816 -0.407,2.394 -0.74,3.211 -0.333,0.816 -0.925,0.87 -1.295,0.435 -0.37,-0.435 -0.518,-1.361 -0.888,-1.823 -0.37,-0.463 -0.962,-0.463 -1.332,0.19 -0.37,0.653 -0.518,1.959 -0.592,2.612 -0.074,0.653 -0.074,0.653 -0.074,0.653"
       style="fill:#ffffff;fill-opacity:1;fill-rule:evenodd;stroke:none"
       id="path244"
       inkscape:connector-curvature="0" /><path
       d="m 306.86014,182.3975 c 0,0 0,0 -0.148,0.572 -0.148,0.571 -0.444,1.714 -0.814,2.204 -0.37,0.49 -0.814,0.326 -1.221,-0.599 -0.407,-0.925 -0.777,-2.612 -1.258,-3.428 -0.481,-0.816 -1.073,-0.762 -1.406,0.054 -0.333,0.817 -0.407,2.395 -0.74,3.211 -0.333,0.816 -0.925,0.871 -1.295,0.435 -0.37,-0.435 -0.518,-1.36 -0.888,-1.823 -0.37,-0.462 -0.962,-0.462 -1.332,0.191 -0.37,0.653 -0.518,1.959 -0.592,2.612 -0.074,0.653 -0.074,0.653 -0.074,0.653"
       style="fill:#ffffff;fill-opacity:1;fill-rule:evenodd;stroke:none"
       id="path248"
       inkscape:connector-curvature="0" /><path
       d="m 306.86014,159.1125 c 0,0 0,0 -0.148,0.572 -0.148,0.571 -0.444,1.714 -0.814,2.204 -0.37,0.489 -0.814,0.326 -1.221,-0.599 -0.407,-0.925 -0.777,-2.612 -1.258,-3.428 -0.481,-0.816 -1.073,-0.762 -1.406,0.054 -0.333,0.816 -0.407,2.395 -0.74,3.211 -0.333,0.816 -0.925,0.87 -1.295,0.435 -0.37,-0.435 -0.518,-1.36 -0.888,-1.823 -0.37,-0.462 -0.962,-0.462 -1.332,0.191 -0.37,0.653 -0.518,1.959 -0.592,2.612 -0.074,0.653 -0.074,0.653 -0.074,0.653"
       style="fill:#ffffff;fill-opacity:1;fill-rule:evenodd;stroke:none"
       id="path256"
       inkscape:connector-curvature="0" /><path
       d="m 299.33414,199.0145 c -2.666,0 -4.444,0 -6.221,0.889 -1.778,0.889 -3.556,2.667 -4.444,4.444 -0.889,1.778 -0.889,3.556 -0.889,6.51 0,2.955 0,7.087 0,10.042 0,2.954 0,4.732 0.889,6.485 0.888,1.754 2.666,3.484 4.444,4.348 1.777,0.865 3.555,0.865 6.221,0.865 2.667,0 6.222,0 8.889,0 2.666,0 4.444,0 6.221,-0.865 1.778,-0.864 3.556,-2.594 4.444,-4.348 0.889,-1.753 0.889,-3.531 0.889,-6.485 0,-2.955 0,-7.087 0,-10.042 0,-2.954 0,-4.732 -0.889,-6.51 -0.888,-1.777 -2.666,-3.555 -4.444,-4.444 -1.777,-0.889 -3.555,-0.889 -6.221,-0.889 -2.667,0 -6.222,0 -8.889,0"
       style="fill:none;stroke:#000000;stroke-width:0.65979397;stroke-linecap:butt;stroke-linejoin:miter;stroke-miterlimit:10;stroke-opacity:1;stroke-dasharray:none"
       id="path304"
       inkscape:connector-curvature="0" /><path
       d="m 417.98814,283.9288 -182.294,0 0,-182.294 182.294,0 0,182.294 z"
       style="fill:none;stroke:#000000;stroke-width:1.31958997;stroke-linecap:butt;stroke-linejoin:miter;stroke-miterlimit:10;stroke-opacity:1;stroke-dasharray:none"
       id="path324"
       inkscape:connector-curvature="0" /><path
       d="m 281.57814,101.6345 0,182.2943"
       style="fill:none;stroke:#000000;stroke-width:0.65979397;stroke-linecap:butt;stroke-linejoin:miter;stroke-miterlimit:10;stroke-opacity:1;stroke-dasharray:none"
       id="path326"
       inkscape:connector-curvature="0" /><path
       d="m 326.84114,101.6345 0,182.2943"
       style="fill:none;stroke:#000000;stroke-width:0.65979397;stroke-linecap:butt;stroke-linejoin:miter;stroke-miterlimit:10;stroke-opacity:1;stroke-dasharray:none"
       id="path328"
       inkscape:connector-curvature="0" /><path
       d="m 372.72514,101.6345 0,182.2943"
       style="fill:none;stroke:#000000;stroke-width:0.65979397;stroke-linecap:butt;stroke-linejoin:miter;stroke-miterlimit:10;stroke-opacity:1;stroke-dasharray:none"
       id="path330"
       inkscape:connector-curvature="0" /><path
       d="m 235.69514,147.5185 182.293,0"
       style="fill:none;stroke:#000000;stroke-width:0.65979397;stroke-linecap:butt;stroke-linejoin:miter;stroke-miterlimit:10;stroke-opacity:1;stroke-dasharray:none"
       id="path332"
       inkscape:connector-curvature="0" /><path
       d="m 235.69514,192.7815 182.293,0"
       style="fill:none;stroke:#000000;stroke-width:0.65979397;stroke-linecap:butt;stroke-linejoin:miter;stroke-miterlimit:10;stroke-opacity:1;stroke-dasharray:none"
       id="path334"
       inkscape:connector-curvature="0" /><path
       d="m 235.69514,238.6655 182.293,0"
       style="fill:none;stroke:#000000;stroke-width:0.65979397;stroke-linecap:butt;stroke-linejoin:miter;stroke-miterlimit:10;stroke-opacity:1;stroke-dasharray:none"
       id="path336"
       inkscape:connector-curvature="0" /><g
       id="g338"
       transform="matrix(-1,0,0,-1,669.87014,363.5245)"><text
         transform="matrix(0,-1,-1,0,235.234,240.93)"
         id="text340"><tspan
           style="font-size:8.68066025px;font-variant:normal;font-weight:normal;writing-mode:lr-tb;fill:#000000;fill-opacity:1;fill-rule:nonzero;stroke:none;font-family:Helvetica;-inkscape-font-specification:Helvetica"
           x="0"
           y="0"
           id="tspan342">1</tspan></text>
<text
         transform="matrix(0,-1,-1,0,235.234,195.49855)"
         id="text344"><tspan
           style="font-size:8.68066025px;font-variant:normal;font-weight:normal;writing-mode:lr-tb;fill:#000000;fill-opacity:1;fill-rule:nonzero;stroke:none;font-family:Helvetica;-inkscape-font-specification:Helvetica"
           x="0"
           y="0"
           id="tspan346">2</tspan></text>
<text
         transform="matrix(0,-1,-1,0,235.234,149.88837)"
         id="text348"><tspan
           style="font-size:8.68066025px;font-variant:normal;font-weight:normal;writing-mode:lr-tb;fill:#000000;fill-opacity:1;fill-rule:nonzero;stroke:none;font-family:Helvetica;-inkscape-font-specification:Helvetica"
           x="0"
           y="0"
           id="tspan350">3</tspan></text>
<text
         transform="matrix(0,-1,-1,0,235.234,104.17323)"
         id="text352"><tspan
           style="font-size:8.68066025px;font-variant:normal;font-weight:normal;writing-mode:lr-tb;fill:#000000;fill-opacity:1;fill-rule:nonzero;stroke:none;font-family:Helvetica;-inkscape-font-specification:Helvetica"
           x="0"
           y="0"
           id="tspan354">4</tspan></text>
<text
         transform="matrix(0,-1,-1,0,272.2841,284.83166)"
         id="text356"><tspan
           style="font-size:8.68066025px;font-variant:normal;font-weight:normal;writing-mode:lr-tb;fill:#000000;fill-opacity:1;fill-rule:nonzero;stroke:none;font-family:Helvetica;-inkscape-font-specification:Helvetica"
           x="0"
           y="0"
           id="tspan358">1</tspan></text>
<text
         transform="matrix(0,-1,-1,0,319.00081,284.83166)"
         id="text360"><tspan
           style="font-size:8.68066025px;font-variant:normal;font-weight:normal;writing-mode:lr-tb;fill:#000000;fill-opacity:1;fill-rule:nonzero;stroke:none;font-family:Helvetica;-inkscape-font-specification:Helvetica"
           x="0"
           y="0"
           id="tspan362">2</tspan></text>
<text
         transform="matrix(0,-1,-1,0,364.3247,284.83166)"
         id="text364"><tspan
           style="font-size:8.68066025px;font-variant:normal;font-weight:normal;writing-mode:lr-tb;fill:#000000;fill-opacity:1;fill-rule:nonzero;stroke:none;font-family:Helvetica;-inkscape-font-specification:Helvetica"
           x="0"
           y="0"
           id="tspan366">3</tspan></text>
<text
         transform="matrix(0,-1,-1,0,409.77924,284.83166)"
         id="text368"><tspan
           style="font-size:8.68066025px;font-variant:normal;font-weight:normal;writing-mode:lr-tb;fill:#000000;fill-opacity:1;fill-rule:nonzero;stroke:none;font-family:Helvetica;-inkscape-font-specification:Helvetica"
           x="0"
           y="0"
           id="tspan370">4</tspan></text>
<text
         transform="matrix(0,-1,-1,0,254.982,252.067)"
         id="text372"><tspan
           style="font-size:7.87315989px;font-variant:normal;font-weight:normal;writing-mode:lr-tb;fill:#000000;fill-opacity:1;fill-rule:nonzero;stroke:none;font-family:Times New Roman;-inkscape-font-specification:Times-Roman"
           x="0 4.3774772 9.1879778 14.872399 20.123796"
           y="0"
           sodipodi:role="line"
           id="tspan374">START</tspan></text>
</g><path
       d="m 381.07314,114.8685 c 0,0 0,0 0.533,0.097 0.533,0.097 1.599,0.291 2.413,0.562 0.814,0.272 1.377,0.62 1.871,0.756 0.494,0.136 0.92,0.058 1.25,-0.058 0.329,-0.116 0.562,-0.271 0.707,-0.359 0.146,-0.087 0.204,-0.106 0.32,-0.029 0.117,0.078 0.291,0.252 0.572,0.359 0.281,0.107 0.669,0.145 1.037,0.029 0.368,-0.116 0.717,-0.388 1.502,-0.727 0.785,-0.339 2.006,-0.746 2.617,-0.95 0.61,-0.203 0.61,-0.203 0.61,-0.203"
       style="fill:#ffffff;fill-opacity:1;fill-rule:evenodd;stroke:none"
       id="path376"
       inkscape:connector-curvature="0" /><path
       d="m 381.07314,114.8685 c 0,0 0,0 0.533,0.097 0.533,0.097 1.599,0.291 2.413,0.562 0.814,0.272 1.377,0.62 1.871,0.756 0.494,0.136 0.92,0.058 1.25,-0.058 0.329,-0.116 0.562,-0.271 0.707,-0.359 0.146,-0.087 0.204,-0.106 0.32,-0.029 0.117,0.078 0.291,0.252 0.572,0.359 0.281,0.107 0.669,0.145 1.037,0.029 0.368,-0.116 0.717,-0.388 1.502,-0.727 0.785,-0.339 2.006,-0.746 2.617,-0.95 0.61,-0.203 0.61,-0.203 0.61,-0.203"
       style="fill:none;stroke:#000000;stroke-width:0.65979397;stroke-linecap:butt;stroke-linejoin:miter;stroke-miterlimit:10;stroke-opacity:1;stroke-dasharray:none"
       id="path378"
       inkscape:connector-curvature="0" /><path
       d="m 381.07314,114.8685 13.374,-0.523"
       style="fill:none;stroke:#000000;stroke-width:0.65979397;stroke-linecap:butt;stroke-linejoin:miter;stroke-miterlimit:10;stroke-opacity:1;stroke-dasharray:none"
       id="path380"
       inkscape:connector-curvature="0" /><path
       d="m 387.17814,120.8275 4.163,-4.706 -1.991,-1.086 -5.067,5.249"
       style="fill:#ffffff;fill-opacity:1;fill-rule:evenodd;stroke:none"
       id="path382"
       inkscape:connector-curvature="0" /><path
       d="m 387.17814,120.8275 4.163,-4.706 -1.991,-1.086 -5.067,5.249 2.895,0.543 z"
       style="fill:none;stroke:#000000;stroke-width:0.65979397;stroke-linecap:butt;stroke-linejoin:miter;stroke-miterlimit:10;stroke-opacity:1;stroke-dasharray:none"
       id="path384"
       inkscape:connector-curvature="0" /><path
       d="m 386.45814,129.6435 -3.445,5.254 -1.571,-1.635 3.73,-6.27"
       style="fill:#ffffff;fill-opacity:1;fill-rule:evenodd;stroke:none"
       id="path386"
       inkscape:connector-curvature="0" /><path
       d="m 386.45814,129.6435 -3.445,5.254 -1.571,-1.635 3.73,-6.27 1.286,2.651 z"
       style="fill:none;stroke:#000000;stroke-width:0.65979397;stroke-linecap:butt;stroke-linejoin:miter;stroke-miterlimit:10;stroke-opacity:1;stroke-dasharray:none"
       id="path388"
       inkscape:connector-curvature="0" /><path
       d="m 405.63914,120.2855 0.362,3.077 -9.049,1.085 0,-2.895"
       style="fill:#ffffff;fill-opacity:1;fill-rule:evenodd;stroke:none"
       id="path390"
       inkscape:connector-curvature="0" /><path
       d="m 405.63914,120.2855 0.362,3.077 -9.049,1.085 0,-2.895 8.687,-1.267 z"
       style="fill:none;stroke:#000000;stroke-width:0.65979397;stroke-linecap:butt;stroke-linejoin:miter;stroke-miterlimit:10;stroke-opacity:1;stroke-dasharray:none"
       id="path392"
       inkscape:connector-curvature="0" /><path
       d="m 405.63914,129.5235 0.362,-3.077 -9.049,-1.086 0,2.896"
       style="fill:#ffffff;fill-opacity:1;fill-rule:evenodd;stroke:none"
       id="path394"
       inkscape:connector-curvature="0" /><path
       d="m 405.63914,129.5235 0.362,-3.077 -9.049,-1.086 0,2.896 8.687,1.267 z"
       style="fill:none;stroke:#000000;stroke-width:0.65979397;stroke-linecap:butt;stroke-linejoin:miter;stroke-miterlimit:10;stroke-opacity:1;stroke-dasharray:none"
       id="path396"
       inkscape:connector-curvature="0" /><path
       d="m 382.26214,121.7925 c 0.211,-1.629 0.573,-2.111 3.046,-2.172 2.474,-0.06 7.059,0.302 9.472,0.604 2.413,0.301 2.654,0.543 2.775,1.96 0.121,1.418 0.121,4.012 0,5.4 -0.121,1.387 -0.362,1.568 -2.745,1.78 -2.383,0.211 -6.908,0.452 -9.411,0.392 -2.504,-0.061 -2.987,-0.423 -3.198,-1.991 -0.211,-1.569 -0.151,-4.344 0.061,-5.973"
       style="fill:#ffffff;fill-opacity:1;fill-rule:evenodd;stroke:none"
       id="path398"
       inkscape:connector-curvature="0" /><path
       d="m 382.26214,121.7925 c 0.211,-1.629 0.573,-2.111 3.046,-2.172 2.474,-0.06 7.059,0.302 9.472,0.604 2.413,0.301 2.654,0.543 2.775,1.96 0.121,1.418 0.121,4.012 0,5.4 -0.121,1.387 -0.362,1.568 -2.745,1.78 -2.383,0.211 -6.908,0.452 -9.411,0.392 -2.504,-0.061 -2.987,-0.423 -3.198,-1.991 -0.211,-1.569 -0.151,-4.344 0.061,-5.973"
       style="fill:none;stroke:#000000;stroke-width:0.65979397;stroke-linecap:butt;stroke-linejoin:miter;stroke-miterlimit:10;stroke-opacity:1;stroke-dasharray:none"
       id="path400"
       inkscape:connector-curvature="0" /><path
       d="m 379.59514,127.0175 c -1.465,0 -2.653,-1.025 -2.653,-2.291 0,-1.265 1.188,-2.29 2.653,-2.29 1.465,0 2.652,1.025 2.652,2.29 0,1.266 -1.187,2.291 -2.652,2.291"
       style="fill:#ffffff;fill-opacity:1;fill-rule:evenodd;stroke:none"
       id="path402"
       inkscape:connector-curvature="0" /><path
       d="m 379.59514,127.0175 c -1.465,0 -2.653,-1.025 -2.653,-2.291 0,-1.265 1.188,-2.29 2.653,-2.29 1.465,0 2.652,1.025 2.652,2.29 0,1.266 -1.187,2.291 -2.652,2.291"
       style="fill:none;stroke:#000000;stroke-width:0.65979397;stroke-linecap:butt;stroke-linejoin:miter;stroke-miterlimit:10;stroke-opacity:1;stroke-dasharray:none"
       id="path404"
       inkscape:connector-curvature="0" /><path
       d="m 382.64714,129.0095 c -0.023,-0.037 -0.008,-0.037 0.573,-0.437 0.58,-0.4 1.727,-1.199 2.782,-2.157 1.056,-0.957 2.021,-2.074 2.874,-3.19 0.852,-1.116 1.591,-2.232 1.968,-2.79 0.377,-0.558 0.392,-0.558 0.46,-0.55 0.068,0.007 0.188,0.022 0.264,0.03 0.075,0.007 0.105,0.007 -0.242,0.558 -0.346,0.55 -1.07,1.651 -1.915,2.76 -0.845,1.108 -1.81,2.225 -2.866,3.182 -1.055,0.958 -2.202,1.757 -2.805,2.225 -0.603,0.467 -0.664,0.603 -0.709,0.671 -0.045,0.068 -0.075,0.068 -0.113,0.038 -0.038,-0.03 -0.083,-0.091 -0.136,-0.159 -0.052,-0.067 -0.113,-0.143 -0.135,-0.181"
       style="fill:#7f7f7f;fill-opacity:1;fill-rule:evenodd;stroke:none"
       id="path406"
       inkscape:connector-curvature="0" /><path
       d="m 382.64714,129.0095 c -0.023,-0.037 -0.008,-0.037 0.573,-0.437 0.58,-0.4 1.727,-1.199 2.782,-2.157 1.056,-0.957 2.021,-2.074 2.874,-3.19 0.852,-1.116 1.591,-2.232 1.968,-2.79 0.377,-0.558 0.392,-0.558 0.46,-0.55 0.068,0.007 0.188,0.022 0.264,0.03 0.075,0.007 0.105,0.007 -0.242,0.558 -0.346,0.55 -1.07,1.651 -1.915,2.76 -0.845,1.108 -1.81,2.225 -2.866,3.182 -1.055,0.958 -2.202,1.757 -2.805,2.225 -0.603,0.467 -0.664,0.603 -0.709,0.671 -0.045,0.068 -0.075,0.068 -0.113,0.038 -0.038,-0.03 -0.083,-0.091 -0.136,-0.159 -0.052,-0.067 -0.113,-0.143 -0.135,-0.181"
       style="fill:none;stroke:#000000;stroke-width:0.65979397;stroke-linecap:butt;stroke-linejoin:miter;stroke-miterlimit:10;stroke-opacity:1;stroke-dasharray:none"
       id="path408"
       inkscape:connector-curvature="0" /><path
       d="m 380.93414,128.8365 0.317,-0.543 -0.452,-0.497 0.814,0 0.362,0.271 1.131,-0.136 0.136,-1.131 0.452,-0.498 5.159,0.272 0.543,0.995 -0.498,1.041 -5.113,0.272 -0.181,0 -0.226,-0.227 -0.272,-0.497 -1.086,0.181 -0.271,0.362 -0.815,0.226"
       style="fill:#ffffff;fill-opacity:1;fill-rule:evenodd;stroke:none"
       id="path410"
       inkscape:connector-curvature="0" /><path
       d="m 380.93414,128.8365 0.317,-0.543 -0.452,-0.497 0.814,0 0.362,0.271 1.131,-0.136 0.136,-1.131 0.452,-0.498 5.159,0.272 0.543,0.995 -0.498,1.041 -5.113,0.272 -0.181,0 -0.226,-0.227 -0.272,-0.497 -1.086,0.181 -0.271,0.362 -0.815,0.226 0,-0.091 z"
       style="fill:none;stroke:#ffffff;stroke-width:0.65979397;stroke-linecap:butt;stroke-linejoin:miter;stroke-miterlimit:10;stroke-opacity:1;stroke-dasharray:none"
       id="path412"
       inkscape:connector-curvature="0" /><path
       d="m 383.72214,126.3225 c -0.264,0 -0.478,0.57 -0.478,1.274 0,0.704 0.214,1.275 0.478,1.275 0.264,0 0.478,-0.571 0.478,-1.275 0,-0.704 -0.214,-1.274 -0.478,-1.274"
       style="fill:#ffffff;fill-opacity:1;fill-rule:evenodd;stroke:none"
       id="path414"
       inkscape:connector-curvature="0" /><path
       d="m 383.72214,126.3225 c -0.264,0 -0.478,0.57 -0.478,1.274 0,0.704 0.214,1.275 0.478,1.275 0.264,0 0.478,-0.571 0.478,-1.275 0,-0.704 -0.214,-1.274 -0.478,-1.274"
       style="fill:none;stroke:#000000;stroke-width:0.65979397;stroke-linecap:butt;stroke-linejoin:miter;stroke-miterlimit:10;stroke-opacity:1;stroke-dasharray:none"
       id="path416"
       inkscape:connector-curvature="0" /><path
       d="m 388.73414,126.6225 c -0.202,0 -0.365,0.436 -0.365,0.975 0,0.538 0.163,0.974 0.365,0.974 0.202,0 0.366,-0.436 0.366,-0.974 0,-0.539 -0.164,-0.975 -0.366,-0.975"
       style="fill:#ffffff;fill-opacity:1;fill-rule:evenodd;stroke:none"
       id="path418"
       inkscape:connector-curvature="0" /><path
       d="m 388.73414,126.6225 c -0.202,0 -0.365,0.436 -0.365,0.975 0,0.538 0.163,0.974 0.365,0.974 0.202,0 0.366,-0.436 0.366,-0.974 0,-0.539 -0.164,-0.975 -0.366,-0.975"
       style="fill:none;stroke:#000000;stroke-width:0.65979397;stroke-linecap:butt;stroke-linejoin:miter;stroke-miterlimit:10;stroke-opacity:1;stroke-dasharray:none"
       id="path420"
       inkscape:connector-curvature="0" /><path
       d="m 388.70214,128.9185 -0.71709,0 0,-2.78865 0.71709,0 0,2.78865 z"
       style="fill:#ffffff;fill-opacity:1;fill-rule:evenodd;stroke:none"
       id="path422"
       inkscape:connector-curvature="0" /><path
       d="m 388.70214,128.9185 -0.71709,0 0,-2.78865 0.71709,0 0,2.78865 z"
       style="fill:none;stroke:#ffffff;stroke-width:0.65979397;stroke-linecap:butt;stroke-linejoin:miter;stroke-miterlimit:10;stroke-opacity:1;stroke-dasharray:none"
       id="path424"
       inkscape:connector-curvature="0" /><path
       d="m 388.74214,128.5605 -5.02,0.278"
       style="fill:none;stroke:#000000;stroke-width:0.65979397;stroke-linecap:butt;stroke-linejoin:miter;stroke-miterlimit:10;stroke-opacity:1;stroke-dasharray:none"
       id="path426"
       inkscape:connector-curvature="0" /><path
       d="m 388.78114,126.6475 -5.059,-0.318"
       style="fill:none;stroke:#000000;stroke-width:0.65979397;stroke-linecap:butt;stroke-linejoin:miter;stroke-miterlimit:10;stroke-opacity:1;stroke-dasharray:none"
       id="path428"
       inkscape:connector-curvature="0" /><path
       d="m 381.39314,128.2275 -0.395,-0.388"
       style="fill:none;stroke:#000000;stroke-width:0.65979397;stroke-linecap:butt;stroke-linejoin:miter;stroke-miterlimit:10;stroke-opacity:1;stroke-dasharray:none"
       id="path430"
       inkscape:connector-curvature="0" /><path
       d="m 381.54414,128.2215 -0.395,-0.388"
       style="fill:none;stroke:#000000;stroke-width:0.65979397;stroke-linecap:butt;stroke-linejoin:miter;stroke-miterlimit:10;stroke-opacity:1;stroke-dasharray:none"
       id="path432"
       inkscape:connector-curvature="0" /><path
       d="m 381.73514,128.2475 -0.395,-0.388"
       style="fill:none;stroke:#000000;stroke-width:0.65979397;stroke-linecap:butt;stroke-linejoin:miter;stroke-miterlimit:10;stroke-opacity:1;stroke-dasharray:none"
       id="path434"
       inkscape:connector-curvature="0" /><path
       d="m 381.96514,128.2745 -0.395,-0.388"
       style="fill:none;stroke:#000000;stroke-width:0.65979397;stroke-linecap:butt;stroke-linejoin:miter;stroke-miterlimit:10;stroke-opacity:1;stroke-dasharray:none"
       id="path436"
       inkscape:connector-curvature="0" /><path
       d="m 381.44014,128.2735 -0.334,0.425"
       style="fill:none;stroke:#000000;stroke-width:0.65979397;stroke-linecap:butt;stroke-linejoin:miter;stroke-miterlimit:10;stroke-opacity:1;stroke-dasharray:none"
       id="path438"
       inkscape:connector-curvature="0" /><path
       d="m 381.59014,128.2635 -0.333,0.425"
       style="fill:none;stroke:#000000;stroke-width:0.65979397;stroke-linecap:butt;stroke-linejoin:miter;stroke-miterlimit:10;stroke-opacity:1;stroke-dasharray:none"
       id="path440"
       inkscape:connector-curvature="0" /><path
       d="m 381.77614,128.2185 -0.334,0.425"
       style="fill:none;stroke:#000000;stroke-width:0.65979397;stroke-linecap:butt;stroke-linejoin:miter;stroke-miterlimit:10;stroke-opacity:1;stroke-dasharray:none"
       id="path442"
       inkscape:connector-curvature="0" /><path
       d="m 381.99914,128.1685 -0.333,0.425"
       style="fill:none;stroke:#000000;stroke-width:0.65979397;stroke-linecap:butt;stroke-linejoin:miter;stroke-miterlimit:10;stroke-opacity:1;stroke-dasharray:none"
       id="path444"
       inkscape:connector-curvature="0" /><path
       d="m 383.87614,127.9775 -2.489,0.316"
       style="fill:none;stroke:#000000;stroke-width:1.31958997;stroke-linecap:butt;stroke-linejoin:miter;stroke-miterlimit:10;stroke-opacity:1;stroke-dasharray:none"
       id="path446"
       inkscape:connector-curvature="0" /><path
       d="m 296.25114,115.3185 c -4.186,1.047 -6.047,2.256 -7.07,4.861 -1.024,2.605 -1.21,6.605 -0.14,9.047 1.07,2.442 3.396,3.326 7.791,4.163 4.396,0.837 10.862,1.628 14.49,1.535 3.628,-0.093 4.419,-1.07 4.838,-4.442 0.418,-3.372 0.465,-9.14 -0.047,-12.536 -0.512,-3.396 -1.581,-4.419 -5.372,-4.489 -3.791,-0.069 -10.304,0.814 -14.49,1.861"
       style="fill:#ffffff;fill-opacity:1;fill-rule:evenodd;stroke:none"
       id="path448"
       inkscape:connector-curvature="0" /><path
       d="m 296.25114,115.3185 c -4.186,1.047 -6.047,2.256 -7.07,4.861 -1.024,2.605 -1.21,6.605 -0.14,9.047 1.07,2.442 3.396,3.326 7.791,4.163 4.396,0.837 10.862,1.628 14.49,1.535 3.628,-0.093 4.419,-1.07 4.838,-4.442 0.418,-3.372 0.465,-9.14 -0.047,-12.536 -0.512,-3.396 -1.581,-4.419 -5.372,-4.489 -3.791,-0.069 -10.304,0.814 -14.49,1.861"
       style="fill:none;stroke:#000000;stroke-width:0.65979397;stroke-linecap:butt;stroke-linejoin:miter;stroke-miterlimit:10;stroke-opacity:1;stroke-dasharray:none"
       id="path450"
       inkscape:connector-curvature="0" /><path
       d="m 298.05214,119.9115 -0.714,3.215"
       style="fill:none;stroke:#000000;stroke-width:1.31958997;stroke-linecap:butt;stroke-linejoin:miter;stroke-miterlimit:10;stroke-opacity:1;stroke-dasharray:none"
       id="path452"
       inkscape:connector-curvature="0" /><path
       d="m 297.05914,125.7725 0.804,3.06"
       style="fill:none;stroke:#000000;stroke-width:1.31958997;stroke-linecap:butt;stroke-linejoin:miter;stroke-miterlimit:10;stroke-opacity:1;stroke-dasharray:none"
       id="path454"
       inkscape:connector-curvature="0" /><path
       d="m 305.08914,119.7605 c 0,0 0,0 0.326,0.186 0.325,0.186 0.976,0.558 0.93,1.093 -0.047,0.535 -0.791,1.233 -0.744,1.884 0.046,0.651 0.883,1.256 0.837,1.791 -0.047,0.535 -0.977,1 -0.977,1.605 0,0.605 0.93,1.349 0.977,1.93 0.046,0.582 -0.791,1 -1.209,1.21 -0.419,0.209 -0.419,0.209 -0.419,0.209"
       style="fill:none;stroke:#000000;stroke-width:0.65979397;stroke-linecap:butt;stroke-linejoin:miter;stroke-miterlimit:10;stroke-opacity:1;stroke-dasharray:none"
       id="path456"
       inkscape:connector-curvature="0" /><path
       d="m 300.71214,123.0855 c -0.63,0 -1.141,-0.409 -1.141,-0.913 0,-0.505 0.511,-0.914 1.141,-0.914 0.631,0 1.142,0.409 1.142,0.914 0,0.504 -0.511,0.913 -1.142,0.913"
       style="fill:#7f7f7f;fill-opacity:1;fill-rule:evenodd;stroke:none"
       id="path458"
       inkscape:connector-curvature="0" /><path
       d="m 300.71214,123.0855 c -0.63,0 -1.141,-0.409 -1.141,-0.913 0,-0.505 0.511,-0.914 1.141,-0.914 0.631,0 1.142,0.409 1.142,0.914 0,0.504 -0.511,0.913 -1.142,0.913"
       style="fill:none;stroke:#000000;stroke-width:0.65979397;stroke-linecap:butt;stroke-linejoin:miter;stroke-miterlimit:10;stroke-opacity:1;stroke-dasharray:none"
       id="path460"
       inkscape:connector-curvature="0" /><path
       d="m 300.73214,127.7085 c -0.631,0 -1.142,-0.409 -1.142,-0.914 0,-0.504 0.511,-0.913 1.142,-0.913 0.63,0 1.141,0.409 1.141,0.913 0,0.505 -0.511,0.914 -1.141,0.914"
       style="fill:#7f7f7f;fill-opacity:1;fill-rule:evenodd;stroke:none"
       id="path462"
       inkscape:connector-curvature="0" /><path
       d="m 300.73214,127.7085 c -0.631,0 -1.142,-0.409 -1.142,-0.914 0,-0.504 0.511,-0.913 1.142,-0.913 0.63,0 1.141,0.409 1.141,0.913 0,0.505 -0.511,0.914 -1.141,0.914"
       style="fill:none;stroke:#000000;stroke-width:0.65979397;stroke-linecap:butt;stroke-linejoin:miter;stroke-miterlimit:10;stroke-opacity:1;stroke-dasharray:none"
       id="path464"
       inkscape:connector-curvature="0" /><path
       d="m 305.61214,126.0055 2.546,0.175 0,1.395 -1.953,0.14"
       style="fill:none;stroke:#000000;stroke-width:0.65979397;stroke-linecap:butt;stroke-linejoin:miter;stroke-miterlimit:10;stroke-opacity:1;stroke-dasharray:none"
       id="path466"
       inkscape:connector-curvature="0" /><path
       d="m 305.82114,122.2375 2.617,0.314 0,1.256 -2.268,0.14"
       style="fill:none;stroke:#000000;stroke-width:0.65979397;stroke-linecap:butt;stroke-linejoin:miter;stroke-miterlimit:10;stroke-opacity:1;stroke-dasharray:none"
       id="path468"
       inkscape:connector-curvature="0" /><path
       d="m 299.50714,114.9815 c 0,0 0,0 -0.744,-0.419 -0.744,-0.419 -2.233,-1.256 -3.349,-1.628 -1.117,-0.372 -1.861,-0.279 -2.326,-0.488 -0.465,-0.21 -0.651,-0.721 -0.674,-1.024 -0.024,-0.302 0.116,-0.395 0.395,-0.418 0.279,-0.024 0.698,0.023 0.767,-0.14 0.07,-0.163 -0.209,-0.535 -0.255,-0.791 -0.047,-0.256 0.139,-0.395 0.418,-0.349 0.279,0.047 0.651,0.279 0.744,0.233 0.093,-0.047 -0.093,-0.372 -0.069,-0.581 0.023,-0.21 0.256,-0.303 0.488,-0.187 0.233,0.117 0.465,0.442 0.582,0.419 0.116,-0.023 0.116,-0.395 0.255,-0.605 0.14,-0.209 0.419,-0.255 0.698,-0.139 0.279,0.116 0.558,0.395 0.675,0.814 0.116,0.419 0.069,0.977 0.395,1.488 0.326,0.512 1.023,0.977 2.07,1.512 1.047,0.535 2.442,1.14 3.14,1.442 0.697,0.302 0.697,0.302 0.697,0.302"
       style="fill:#ffffff;fill-opacity:1;fill-rule:evenodd;stroke:none"
       id="path470"
       inkscape:connector-curvature="0" /><path
       d="m 299.50714,114.9815 c 0,0 0,0 -0.744,-0.419 -0.744,-0.419 -2.233,-1.256 -3.349,-1.628 -1.117,-0.372 -1.861,-0.279 -2.326,-0.488 -0.465,-0.21 -0.651,-0.721 -0.674,-1.024 -0.024,-0.302 0.116,-0.395 0.395,-0.418 0.279,-0.024 0.698,0.023 0.767,-0.14 0.07,-0.163 -0.209,-0.535 -0.255,-0.791 -0.047,-0.256 0.139,-0.395 0.418,-0.349 0.279,0.047 0.651,0.279 0.744,0.233 0.093,-0.047 -0.093,-0.372 -0.069,-0.581 0.023,-0.21 0.256,-0.303 0.488,-0.187 0.233,0.117 0.465,0.442 0.582,0.419 0.116,-0.023 0.116,-0.395 0.255,-0.605 0.14,-0.209 0.419,-0.255 0.698,-0.139 0.279,0.116 0.558,0.395 0.675,0.814 0.116,0.419 0.069,0.977 0.395,1.488 0.326,0.512 1.023,0.977 2.07,1.512 1.047,0.535 2.442,1.14 3.14,1.442 0.697,0.302 0.697,0.302 0.697,0.302"
       style="fill:none;stroke:#000000;stroke-width:0.65979397;stroke-linecap:butt;stroke-linejoin:miter;stroke-miterlimit:10;stroke-opacity:1;stroke-dasharray:none"
       id="path472"
       inkscape:connector-curvature="0" /><path
       d="m 299.50714,133.4425 c 0,0 0,0 -0.744,0.419 -0.744,0.418 -2.233,1.256 -3.349,1.628 -1.117,0.372 -1.861,0.279 -2.326,0.488 -0.465,0.209 -0.651,0.721 -0.674,1.023 -0.024,0.303 0.116,0.396 0.395,0.419 0.279,0.023 0.698,-0.023 0.767,0.14 0.07,0.162 -0.209,0.535 -0.255,0.79 -0.047,0.256 0.139,0.396 0.418,0.349 0.279,-0.046 0.651,-0.279 0.744,-0.232 0.093,0.046 -0.093,0.372 -0.069,0.581 0.023,0.209 0.256,0.303 0.488,0.186 0.233,-0.116 0.465,-0.442 0.582,-0.418 0.116,0.023 0.116,0.395 0.255,0.604 0.14,0.21 0.419,0.256 0.698,0.14 0.279,-0.116 0.558,-0.396 0.675,-0.814 0.116,-0.419 0.069,-0.977 0.395,-1.489 0.326,-0.511 1.023,-0.977 2.07,-1.511 1.047,-0.535 2.442,-1.14 3.14,-1.442 0.697,-0.303 0.697,-0.303 0.697,-0.303"
       style="fill:#ffffff;fill-opacity:1;fill-rule:evenodd;stroke:none"
       id="path474"
       inkscape:connector-curvature="0" /><path
       d="m 299.50714,133.4425 c 0,0 0,0 -0.744,0.419 -0.744,0.418 -2.233,1.256 -3.349,1.628 -1.117,0.372 -1.861,0.279 -2.326,0.488 -0.465,0.209 -0.651,0.721 -0.674,1.023 -0.024,0.303 0.116,0.396 0.395,0.419 0.279,0.023 0.698,-0.023 0.767,0.14 0.07,0.162 -0.209,0.535 -0.255,0.79 -0.047,0.256 0.139,0.396 0.418,0.349 0.279,-0.046 0.651,-0.279 0.744,-0.232 0.093,0.046 -0.093,0.372 -0.069,0.581 0.023,0.209 0.256,0.303 0.488,0.186 0.233,-0.116 0.465,-0.442 0.582,-0.418 0.116,0.023 0.116,0.395 0.255,0.604 0.14,0.21 0.419,0.256 0.698,0.14 0.279,-0.116 0.558,-0.396 0.675,-0.814 0.116,-0.419 0.069,-0.977 0.395,-1.489 0.326,-0.511 1.023,-0.977 2.07,-1.511 1.047,-0.535 2.442,-1.14 3.14,-1.442 0.697,-0.303 0.697,-0.303 0.697,-0.303"
       style="fill:none;stroke:#000000;stroke-width:0.65979397;stroke-linecap:butt;stroke-linejoin:miter;stroke-miterlimit:10;stroke-opacity:1;stroke-dasharray:none"
       id="path476"
       inkscape:connector-curvature="0" /><path
       d="m 315.71814,119.6995 c 0,0 0,0 0.356,0 0.357,0 1.071,0 1.455,-0.055 0.385,-0.055 0.44,-0.165 0.33,-0.906 -0.11,-0.741 -0.384,-2.114 -0.439,-3.02 -0.055,-0.906 0.109,-1.345 0.247,-1.73 0.137,-0.384 0.247,-0.713 0.521,-0.906 0.275,-0.192 0.714,-0.247 1.071,0 0.357,0.247 0.632,0.797 0.796,1.538 0.165,0.741 0.22,1.674 0.11,3.02 -0.11,1.345 -0.384,3.102 -0.439,4.228 -0.055,1.125 0.11,1.619 -0.028,1.839 -0.137,0.22 -0.576,0.165 -0.906,0.137 -0.329,-0.027 -0.549,-0.027 -0.768,-0.137 -0.22,-0.11 -0.44,-0.329 -0.577,-0.494 -0.137,-0.165 -0.192,-0.275 -0.439,-0.33 -0.247,-0.055 -0.686,-0.055 -0.906,-0.055 -0.22,0 -0.22,0 -0.22,0"
       style="fill:#ffffff;fill-opacity:1;fill-rule:evenodd;stroke:none"
       id="path478"
       inkscape:connector-curvature="0" /><path
       d="m 315.71814,119.6995 c 0,0 0,0 0.356,0 0.357,0 1.071,0 1.455,-0.055 0.385,-0.055 0.44,-0.165 0.33,-0.906 -0.11,-0.741 -0.384,-2.114 -0.439,-3.02 -0.055,-0.906 0.109,-1.345 0.247,-1.73 0.137,-0.384 0.247,-0.713 0.521,-0.906 0.275,-0.192 0.714,-0.247 1.071,0 0.357,0.247 0.632,0.797 0.796,1.538 0.165,0.741 0.22,1.674 0.11,3.02 -0.11,1.345 -0.384,3.102 -0.439,4.228 -0.055,1.125 0.11,1.619 -0.028,1.839 -0.137,0.22 -0.576,0.165 -0.906,0.137 -0.329,-0.027 -0.549,-0.027 -0.768,-0.137 -0.22,-0.11 -0.44,-0.329 -0.577,-0.494 -0.137,-0.165 -0.192,-0.275 -0.439,-0.33 -0.247,-0.055 -0.686,-0.055 -0.906,-0.055 -0.22,0 -0.22,0 -0.22,0"
       style="fill:none;stroke:#000000;stroke-width:0.65979397;stroke-linecap:butt;stroke-linejoin:miter;stroke-miterlimit:10;stroke-opacity:1;stroke-dasharray:none"
       id="path480"
       inkscape:connector-curvature="0" /><path
       d="m 315.71814,129.4735 c 0,0 0,0 0.356,0 0.357,0 1.071,0 1.455,0.055 0.385,0.055 0.44,0.165 0.33,0.906 -0.11,0.741 -0.384,2.114 -0.439,3.02 -0.055,0.906 0.109,1.345 0.247,1.73 0.137,0.384 0.247,0.713 0.521,0.906 0.275,0.192 0.714,0.247 1.071,0 0.357,-0.248 0.632,-0.797 0.796,-1.538 0.165,-0.741 0.22,-1.675 0.11,-3.02 -0.11,-1.345 -0.384,-3.102 -0.439,-4.228 -0.055,-1.125 0.11,-1.619 -0.028,-1.839 -0.137,-0.22 -0.576,-0.165 -0.906,-0.137 -0.329,0.027 -0.549,0.027 -0.768,0.137 -0.22,0.11 -0.44,0.329 -0.577,0.494 -0.137,0.165 -0.192,0.275 -0.439,0.33 -0.247,0.054 -0.686,0.054 -0.906,0.054 -0.22,0 -0.22,0 -0.22,0"
       style="fill:#ffffff;fill-opacity:1;fill-rule:evenodd;stroke:none"
       id="path482"
       inkscape:connector-curvature="0" /><path
       d="m 315.71814,129.4735 c 0,0 0,0 0.356,0 0.357,0 1.071,0 1.455,0.055 0.385,0.055 0.44,0.165 0.33,0.906 -0.11,0.741 -0.384,2.114 -0.439,3.02 -0.055,0.906 0.109,1.345 0.247,1.73 0.137,0.384 0.247,0.713 0.521,0.906 0.275,0.192 0.714,0.247 1.071,0 0.357,-0.248 0.632,-0.797 0.796,-1.538 0.165,-0.741 0.22,-1.675 0.11,-3.02 -0.11,-1.345 -0.384,-3.102 -0.439,-4.228 -0.055,-1.125 0.11,-1.619 -0.028,-1.839 -0.137,-0.22 -0.576,-0.165 -0.906,-0.137 -0.329,0.027 -0.549,0.027 -0.768,0.137 -0.22,0.11 -0.44,0.329 -0.577,0.494 -0.137,0.165 -0.192,0.275 -0.439,0.33 -0.247,0.054 -0.686,0.054 -0.906,0.054 -0.22,0 -0.22,0 -0.22,0"
       style="fill:none;stroke:#000000;stroke-width:0.65979397;stroke-linecap:butt;stroke-linejoin:miter;stroke-miterlimit:10;stroke-opacity:1;stroke-dasharray:none"
       id="path484"
       inkscape:connector-curvature="0" /><g
       id="g4584"><path
         inkscape:connector-curvature="0"
         id="path302"
         style="fill:#000000;fill-opacity:1;fill-rule:evenodd;stroke:none"
         d="m 299.33414,199.0145 c -2.666,0 -4.444,0 -6.221,0.889 -1.778,0.889 -3.556,2.667 -4.444,4.444 -0.889,1.778 -0.889,3.556 -0.889,6.51 0,2.955 0,7.087 0,10.042 0,2.954 0,4.732 0.889,6.485 0.888,1.754 2.666,3.484 4.444,4.348 1.777,0.865 3.555,0.865 6.221,0.865 2.667,0 6.222,0 8.889,0 2.666,0 4.444,0 6.221,-0.865 1.778,-0.864 3.556,-2.594 4.444,-4.348 0.889,-1.753 0.889,-3.531 0.889,-6.485 0,-2.955 0,-7.087 0,-10.042 0,-2.954 0,-4.732 -0.889,-6.51 -0.888,-1.777 -2.666,-3.555 -4.444,-4.444 -1.777,-0.889 -3.555,-0.889 -6.221,-0.889 -2.667,0 -6.222,0 -8.889,0" /><text
         transform="matrix(0,1,1,0,0,0)"
         sodipodi:linespacing="125%"
         id="text4351"
         y="307.28607"
         x="202.8085"
         style="font-size:11.19999980999999956px;font-style:normal;font-variant:normal;font-weight:bold;font-stretch:normal;line-height:125%;letter-spacing:0px;word-spacing:0px;fill:#ffffff;fill-opacity:1;stroke:none;font-family:Droid Sans;-inkscape-font-specification:Sans Bold"
         xml:space="preserve"><tspan
           y="307.28607"
           x="202.8085"
           id="tspan4353"
           sodipodi:role="line">J치ma</tspan></text>
</g><g
       id="g4589"
       transform="translate(-46.4,44.8)"><path
         d="m 299.33414,199.0145 c -2.666,0 -4.444,0 -6.221,0.889 -1.778,0.889 -3.556,2.667 -4.444,4.444 -0.889,1.778 -0.889,3.556 -0.889,6.51 0,2.955 0,7.087 0,10.042 0,2.954 0,4.732 0.889,6.485 0.888,1.754 2.666,3.484 4.444,4.348 1.777,0.865 3.555,0.865 6.221,0.865 2.667,0 6.222,0 8.889,0 2.666,0 4.444,0 6.221,-0.865 1.778,-0.864 3.556,-2.594 4.444,-4.348 0.889,-1.753 0.889,-3.531 0.889,-6.485 0,-2.955 0,-7.087 0,-10.042 0,-2.954 0,-4.732 -0.889,-6.51 -0.888,-1.777 -2.666,-3.555 -4.444,-4.444 -1.777,-0.889 -3.555,-0.889 -6.221,-0.889 -2.667,0 -6.222,0 -8.889,0"
         style="fill:#000000;fill-opacity:1;fill-rule:evenodd;stroke:none"
         id="path4591"
         inkscape:connector-curvature="0" /><text
         xml:space="preserve"
         style="font-size:11.19999981px;font-style:normal;font-variant:normal;font-weight:bold;font-stretch:normal;line-height:125%;letter-spacing:0px;word-spacing:0px;fill:#ffffff;fill-opacity:1;stroke:none;font-family:Droid Sans;-inkscape-font-specification:Sans Bold"
         x="202.8085"
         y="307.28607"
         id="text4593"
         sodipodi:linespacing="125%"
         transform="matrix(0,1,1,0,0,0)"><tspan
           sodipodi:role="line"
           id="tspan4595"
           x="202.8085"
           y="307.28607">J치ma</tspan></text>
</g><g
       transform="translate(91.2,0)"
       id="g4597"><path
         inkscape:connector-curvature="0"
         id="path4599"
         style="fill:#000000;fill-opacity:1;fill-rule:evenodd;stroke:none"
         d="m 299.33414,199.0145 c -2.666,0 -4.444,0 -6.221,0.889 -1.778,0.889 -3.556,2.667 -4.444,4.444 -0.889,1.778 -0.889,3.556 -0.889,6.51 0,2.955 0,7.087 0,10.042 0,2.954 0,4.732 0.889,6.485 0.888,1.754 2.666,3.484 4.444,4.348 1.777,0.865 3.555,0.865 6.221,0.865 2.667,0 6.222,0 8.889,0 2.666,0 4.444,0 6.221,-0.865 1.778,-0.864 3.556,-2.594 4.444,-4.348 0.889,-1.753 0.889,-3.531 0.889,-6.485 0,-2.955 0,-7.087 0,-10.042 0,-2.954 0,-4.732 -0.889,-6.51 -0.888,-1.777 -2.666,-3.555 -4.444,-4.444 -1.777,-0.889 -3.555,-0.889 -6.221,-0.889 -2.667,0 -6.222,0 -8.889,0" /><text
         transform="matrix(0,1,1,0,0,0)"
         sodipodi:linespacing="125%"
         id="text4601"
         y="307.28607"
         x="202.8085"
         style="font-size:11.19999981px;font-style:normal;font-variant:normal;font-weight:bold;font-stretch:normal;line-height:125%;letter-spacing:0px;word-spacing:0px;fill:#ffffff;fill-opacity:1;stroke:none;font-family:Droid Sans;-inkscape-font-specification:Sans Bold"
         xml:space="preserve"><tspan
           y="307.28607"
           x="202.8085"
           id="tspan4603"
           sodipodi:role="line">J치ma</tspan></text>
</g><g
       id="g4609"
       transform="translate(4.8,0)"><path
         inkscape:connector-curvature="0"
         id="path516"
         style="fill:#ffffff;fill-opacity:1;fill-rule:evenodd;stroke:none"
         d="m 255.14514,108.8725 c 0,0 0,0 -0.148,0.571 -0.148,0.571 -0.444,1.714 -0.814,2.204 -0.37,0.49 -0.814,0.326 -1.221,-0.599 -0.407,-0.925 -0.777,-2.612 -1.258,-3.428 -0.481,-0.816 -1.073,-0.762 -1.406,0.054 -0.333,0.817 -0.407,2.395 -0.74,3.211 -0.333,0.816 -0.925,0.871 -1.295,0.435 -0.37,-0.435 -0.518,-1.36 -0.888,-1.823 -0.37,-0.462 -0.962,-0.462 -1.332,0.191 -0.37,0.653 -0.518,1.959 -0.592,2.612 -0.074,0.653 -0.074,0.653 -0.074,0.653" /><path
         inkscape:connector-curvature="0"
         id="path518"
         style="fill:none;stroke:#000000;stroke-width:0.65979397;stroke-linecap:butt;stroke-linejoin:miter;stroke-miterlimit:10;stroke-opacity:1;stroke-dasharray:none"
         d="m 255.14514,108.8725 c 0,0 0,0 -0.148,0.571 -0.148,0.571 -0.444,1.714 -0.814,2.204 -0.37,0.49 -0.814,0.326 -1.221,-0.599 -0.407,-0.925 -0.777,-2.612 -1.258,-3.428 -0.481,-0.816 -1.073,-0.762 -1.406,0.054 -0.333,0.817 -0.407,2.395 -0.74,3.211 -0.333,0.816 -0.925,0.871 -1.295,0.435 -0.37,-0.435 -0.518,-1.36 -0.888,-1.823 -0.37,-0.462 -0.962,-0.462 -1.332,0.191 -0.37,0.653 -0.518,1.959 -0.592,2.612 -0.074,0.653 -0.074,0.653 -0.074,0.653" /><path
         inkscape:connector-curvature="0"
         id="path520"
         style="fill:#ffffff;fill-opacity:1;fill-rule:evenodd;stroke:none"
         d="m 255.14514,121.4655 c 0,0 0,0 -0.148,0.572 -0.148,0.571 -0.444,1.714 -0.814,2.204 -0.37,0.489 -0.814,0.326 -1.221,-0.599 -0.407,-0.925 -0.777,-2.612 -1.258,-3.428 -0.481,-0.816 -1.073,-0.762 -1.406,0.054 -0.333,0.817 -0.407,2.395 -0.74,3.211 -0.333,0.816 -0.925,0.871 -1.295,0.435 -0.37,-0.435 -0.518,-1.36 -0.888,-1.823 -0.37,-0.462 -0.962,-0.462 -1.332,0.191 -0.37,0.653 -0.518,1.959 -0.592,2.612 -0.074,0.653 -0.074,0.653 -0.074,0.653" /><path
         inkscape:connector-curvature="0"
         id="path522"
         style="fill:none;stroke:#000000;stroke-width:0.65979397;stroke-linecap:butt;stroke-linejoin:miter;stroke-miterlimit:10;stroke-opacity:1;stroke-dasharray:none"
         d="m 255.14514,121.4655 c 0,0 0,0 -0.148,0.572 -0.148,0.571 -0.444,1.714 -0.814,2.204 -0.37,0.489 -0.814,0.326 -1.221,-0.599 -0.407,-0.925 -0.777,-2.612 -1.258,-3.428 -0.481,-0.816 -1.073,-0.762 -1.406,0.054 -0.333,0.817 -0.407,2.395 -0.74,3.211 -0.333,0.816 -0.925,0.871 -1.295,0.435 -0.37,-0.435 -0.518,-1.36 -0.888,-1.823 -0.37,-0.462 -0.962,-0.462 -1.332,0.191 -0.37,0.653 -0.518,1.959 -0.592,2.612 -0.074,0.653 -0.074,0.653 -0.074,0.653" /><path
         inkscape:connector-curvature="0"
         id="path524"
         style="fill:#ffffff;fill-opacity:1;fill-rule:evenodd;stroke:none"
         d="m 255.14514,131.4245 c 0,0 0,0 -0.148,0.571 -0.148,0.572 -0.444,1.714 -0.814,2.204 -0.37,0.49 -0.814,0.327 -1.221,-0.599 -0.407,-0.925 -0.777,-2.612 -1.258,-3.428 -0.481,-0.816 -1.073,-0.762 -1.406,0.055 -0.333,0.816 -0.407,2.394 -0.74,3.21 -0.333,0.816 -0.925,0.871 -1.295,0.436 -0.37,-0.436 -0.518,-1.361 -0.888,-1.823 -0.37,-0.463 -0.962,-0.463 -1.332,0.19 -0.37,0.653 -0.518,1.959 -0.592,2.612 -0.074,0.653 -0.074,0.653 -0.074,0.653" /><path
         inkscape:connector-curvature="0"
         id="path526"
         style="fill:none;stroke:#000000;stroke-width:0.65979397;stroke-linecap:butt;stroke-linejoin:miter;stroke-miterlimit:10;stroke-opacity:1;stroke-dasharray:none"
         d="m 255.14514,131.4245 c 0,0 0,0 -0.148,0.571 -0.148,0.572 -0.444,1.714 -0.814,2.204 -0.37,0.49 -0.814,0.327 -1.221,-0.599 -0.407,-0.925 -0.777,-2.612 -1.258,-3.428 -0.481,-0.816 -1.073,-0.762 -1.406,0.055 -0.333,0.816 -0.407,2.394 -0.74,3.21 -0.333,0.816 -0.925,0.871 -1.295,0.436 -0.37,-0.436 -0.518,-1.361 -0.888,-1.823 -0.37,-0.463 -0.962,-0.463 -1.332,0.19 -0.37,0.653 -0.518,1.959 -0.592,2.612 -0.074,0.653 -0.074,0.653 -0.074,0.653" /><path
         inkscape:connector-curvature="0"
         id="path528"
         style="fill:#ffffff;fill-opacity:1;fill-rule:evenodd;stroke:none"
         d="m 255.14514,137.5925 c 0,0 0,0 -0.148,0.572 -0.148,0.571 -0.444,1.714 -0.814,2.203 -0.37,0.49 -0.814,0.327 -1.221,-0.598 -0.407,-0.925 -0.777,-2.612 -1.258,-3.428 -0.481,-0.817 -1.073,-0.762 -1.406,0.054 -0.333,0.816 -0.407,2.394 -0.74,3.211 -0.333,0.816 -0.925,0.87 -1.295,0.435 -0.37,-0.435 -0.518,-1.361 -0.888,-1.823 -0.37,-0.463 -0.962,-0.463 -1.332,0.19 -0.37,0.653 -0.518,1.959 -0.592,2.612 -0.074,0.653 -0.074,0.653 -0.074,0.653" /><path
         inkscape:connector-curvature="0"
         id="path530"
         style="fill:none;stroke:#000000;stroke-width:0.65979397;stroke-linecap:butt;stroke-linejoin:miter;stroke-miterlimit:10;stroke-opacity:1;stroke-dasharray:none"
         d="m 255.14514,137.5925 c 0,0 0,0 -0.148,0.572 -0.148,0.571 -0.444,1.714 -0.814,2.203 -0.37,0.49 -0.814,0.327 -1.221,-0.598 -0.407,-0.925 -0.777,-2.612 -1.258,-3.428 -0.481,-0.817 -1.073,-0.762 -1.406,0.054 -0.333,0.816 -0.407,2.394 -0.74,3.211 -0.333,0.816 -0.925,0.87 -1.295,0.435 -0.37,-0.435 -0.518,-1.361 -0.888,-1.823 -0.37,-0.463 -0.962,-0.463 -1.332,0.19 -0.37,0.653 -0.518,1.959 -0.592,2.612 -0.074,0.653 -0.074,0.653 -0.074,0.653" /><path
         inkscape:connector-curvature="0"
         id="path532"
         style="fill:#ffffff;fill-opacity:1;fill-rule:evenodd;stroke:none"
         d="m 255.14514,126.4895 c 0,0 0,0 -0.148,0.572 -0.148,0.571 -0.444,1.714 -0.814,2.204 -0.37,0.489 -0.814,0.326 -1.221,-0.599 -0.407,-0.925 -0.777,-2.612 -1.258,-3.428 -0.481,-0.817 -1.073,-0.762 -1.406,0.054 -0.333,0.816 -0.407,2.394 -0.74,3.211 -0.333,0.816 -0.925,0.87 -1.295,0.435 -0.37,-0.435 -0.518,-1.36 -0.888,-1.823 -0.37,-0.462 -0.962,-0.462 -1.332,0.191 -0.37,0.653 -0.518,1.959 -0.592,2.612 -0.074,0.653 -0.074,0.653 -0.074,0.653" /><path
         inkscape:connector-curvature="0"
         id="path534"
         style="fill:none;stroke:#000000;stroke-width:0.65979397;stroke-linecap:butt;stroke-linejoin:miter;stroke-miterlimit:10;stroke-opacity:1;stroke-dasharray:none"
         d="m 255.14514,126.4895 c 0,0 0,0 -0.148,0.572 -0.148,0.571 -0.444,1.714 -0.814,2.204 -0.37,0.489 -0.814,0.326 -1.221,-0.599 -0.407,-0.925 -0.777,-2.612 -1.258,-3.428 -0.481,-0.817 -1.073,-0.762 -1.406,0.054 -0.333,0.816 -0.407,2.394 -0.74,3.211 -0.333,0.816 -0.925,0.87 -1.295,0.435 -0.37,-0.435 -0.518,-1.36 -0.888,-1.823 -0.37,-0.462 -0.962,-0.462 -1.332,0.191 -0.37,0.653 -0.518,1.959 -0.592,2.612 -0.074,0.653 -0.074,0.653 -0.074,0.653" /><path
         inkscape:connector-curvature="0"
         id="path536"
         style="fill:#ffffff;fill-opacity:1;fill-rule:evenodd;stroke:none"
         d="m 255.14514,114.3075 c 0,0 0,0 -0.148,0.571 -0.148,0.572 -0.444,1.715 -0.814,2.204 -0.37,0.49 -0.814,0.327 -1.221,-0.598 -0.407,-0.925 -0.777,-2.612 -1.258,-3.429 -0.481,-0.816 -1.073,-0.761 -1.406,0.055 -0.333,0.816 -0.407,2.394 -0.74,3.21 -0.333,0.817 -0.925,0.871 -1.295,0.436 -0.37,-0.436 -0.518,-1.361 -0.888,-1.823 -0.37,-0.463 -0.962,-0.463 -1.332,0.19 -0.37,0.653 -0.518,1.959 -0.592,2.612 -0.074,0.653 -0.074,0.653 -0.074,0.653" /><path
         inkscape:connector-curvature="0"
         id="path538"
         style="fill:none;stroke:#000000;stroke-width:0.65979397;stroke-linecap:butt;stroke-linejoin:miter;stroke-miterlimit:10;stroke-opacity:1;stroke-dasharray:none"
         d="m 255.14514,114.3075 c 0,0 0,0 -0.148,0.571 -0.148,0.572 -0.444,1.715 -0.814,2.204 -0.37,0.49 -0.814,0.327 -1.221,-0.598 -0.407,-0.925 -0.777,-2.612 -1.258,-3.429 -0.481,-0.816 -1.073,-0.761 -1.406,0.055 -0.333,0.816 -0.407,2.394 -0.74,3.21 -0.333,0.817 -0.925,0.871 -1.295,0.436 -0.37,-0.436 -0.518,-1.361 -0.888,-1.823 -0.37,-0.463 -0.962,-0.463 -1.332,0.19 -0.37,0.653 -0.518,1.959 -0.592,2.612 -0.074,0.653 -0.074,0.653 -0.074,0.653" /><path
         inkscape:connector-curvature="0"
         id="path540"
         style="fill:#ffffff;fill-opacity:1;fill-rule:evenodd;stroke:none"
         d="m 256.46714,135.3015 -6.26,0.658 -0.329,-4.941 0,-11.201 0.329,-7.248 6.26,0.329" /><path
         inkscape:connector-curvature="0"
         id="path542"
         style="fill:none;stroke:#ffffff;stroke-width:0.65979397;stroke-linecap:butt;stroke-linejoin:miter;stroke-miterlimit:10;stroke-opacity:1;stroke-dasharray:none"
         d="m 256.46714,135.3015 -6.26,0.658 -0.329,-4.941 0,-11.201 0.329,-7.248 6.26,0.329 0,22.403 z" /><text
         transform="matrix(0,1,1,0,0,0)"
         sodipodi:linespacing="125%"
         id="text4605"
         y="256.50043"
         x="112.93127"
         style="font-size:7.19999981px;font-style:normal;font-variant:normal;font-weight:bold;font-stretch:normal;line-height:125%;letter-spacing:0px;word-spacing:0px;fill:#000000;fill-opacity:1;stroke:none;font-family:Droid Sans;-inkscape-font-specification:Sans Bold"
         xml:space="preserve"><tspan
           y="256.50043"
           x="112.93127"
           id="tspan4607"
           sodipodi:role="line">z치pach</tspan></text>
</g><g
       id="g4627"
       transform="translate(99.2,0)"><path
         d="m 255.14514,108.8725 c 0,0 0,0 -0.148,0.571 -0.148,0.571 -0.444,1.714 -0.814,2.204 -0.37,0.49 -0.814,0.326 -1.221,-0.599 -0.407,-0.925 -0.777,-2.612 -1.258,-3.428 -0.481,-0.816 -1.073,-0.762 -1.406,0.054 -0.333,0.817 -0.407,2.395 -0.74,3.211 -0.333,0.816 -0.925,0.871 -1.295,0.435 -0.37,-0.435 -0.518,-1.36 -0.888,-1.823 -0.37,-0.462 -0.962,-0.462 -1.332,0.191 -0.37,0.653 -0.518,1.959 -0.592,2.612 -0.074,0.653 -0.074,0.653 -0.074,0.653"
         style="fill:#ffffff;fill-opacity:1;fill-rule:evenodd;stroke:none"
         id="path4629"
         inkscape:connector-curvature="0" /><path
         d="m 255.14514,108.8725 c 0,0 0,0 -0.148,0.571 -0.148,0.571 -0.444,1.714 -0.814,2.204 -0.37,0.49 -0.814,0.326 -1.221,-0.599 -0.407,-0.925 -0.777,-2.612 -1.258,-3.428 -0.481,-0.816 -1.073,-0.762 -1.406,0.054 -0.333,0.817 -0.407,2.395 -0.74,3.211 -0.333,0.816 -0.925,0.871 -1.295,0.435 -0.37,-0.435 -0.518,-1.36 -0.888,-1.823 -0.37,-0.462 -0.962,-0.462 -1.332,0.191 -0.37,0.653 -0.518,1.959 -0.592,2.612 -0.074,0.653 -0.074,0.653 -0.074,0.653"
         style="fill:none;stroke:#000000;stroke-width:0.65979397;stroke-linecap:butt;stroke-linejoin:miter;stroke-miterlimit:10;stroke-opacity:1;stroke-dasharray:none"
         id="path4631"
         inkscape:connector-curvature="0" /><path
         d="m 255.14514,121.4655 c 0,0 0,0 -0.148,0.572 -0.148,0.571 -0.444,1.714 -0.814,2.204 -0.37,0.489 -0.814,0.326 -1.221,-0.599 -0.407,-0.925 -0.777,-2.612 -1.258,-3.428 -0.481,-0.816 -1.073,-0.762 -1.406,0.054 -0.333,0.817 -0.407,2.395 -0.74,3.211 -0.333,0.816 -0.925,0.871 -1.295,0.435 -0.37,-0.435 -0.518,-1.36 -0.888,-1.823 -0.37,-0.462 -0.962,-0.462 -1.332,0.191 -0.37,0.653 -0.518,1.959 -0.592,2.612 -0.074,0.653 -0.074,0.653 -0.074,0.653"
         style="fill:#ffffff;fill-opacity:1;fill-rule:evenodd;stroke:none"
         id="path4633"
         inkscape:connector-curvature="0" /><path
         d="m 255.14514,121.4655 c 0,0 0,0 -0.148,0.572 -0.148,0.571 -0.444,1.714 -0.814,2.204 -0.37,0.489 -0.814,0.326 -1.221,-0.599 -0.407,-0.925 -0.777,-2.612 -1.258,-3.428 -0.481,-0.816 -1.073,-0.762 -1.406,0.054 -0.333,0.817 -0.407,2.395 -0.74,3.211 -0.333,0.816 -0.925,0.871 -1.295,0.435 -0.37,-0.435 -0.518,-1.36 -0.888,-1.823 -0.37,-0.462 -0.962,-0.462 -1.332,0.191 -0.37,0.653 -0.518,1.959 -0.592,2.612 -0.074,0.653 -0.074,0.653 -0.074,0.653"
         style="fill:none;stroke:#000000;stroke-width:0.65979397;stroke-linecap:butt;stroke-linejoin:miter;stroke-miterlimit:10;stroke-opacity:1;stroke-dasharray:none"
         id="path4635"
         inkscape:connector-curvature="0" /><path
         d="m 255.14514,131.4245 c 0,0 0,0 -0.148,0.571 -0.148,0.572 -0.444,1.714 -0.814,2.204 -0.37,0.49 -0.814,0.327 -1.221,-0.599 -0.407,-0.925 -0.777,-2.612 -1.258,-3.428 -0.481,-0.816 -1.073,-0.762 -1.406,0.055 -0.333,0.816 -0.407,2.394 -0.74,3.21 -0.333,0.816 -0.925,0.871 -1.295,0.436 -0.37,-0.436 -0.518,-1.361 -0.888,-1.823 -0.37,-0.463 -0.962,-0.463 -1.332,0.19 -0.37,0.653 -0.518,1.959 -0.592,2.612 -0.074,0.653 -0.074,0.653 -0.074,0.653"
         style="fill:#ffffff;fill-opacity:1;fill-rule:evenodd;stroke:none"
         id="path4637"
         inkscape:connector-curvature="0" /><path
         d="m 255.14514,131.4245 c 0,0 0,0 -0.148,0.571 -0.148,0.572 -0.444,1.714 -0.814,2.204 -0.37,0.49 -0.814,0.327 -1.221,-0.599 -0.407,-0.925 -0.777,-2.612 -1.258,-3.428 -0.481,-0.816 -1.073,-0.762 -1.406,0.055 -0.333,0.816 -0.407,2.394 -0.74,3.21 -0.333,0.816 -0.925,0.871 -1.295,0.436 -0.37,-0.436 -0.518,-1.361 -0.888,-1.823 -0.37,-0.463 -0.962,-0.463 -1.332,0.19 -0.37,0.653 -0.518,1.959 -0.592,2.612 -0.074,0.653 -0.074,0.653 -0.074,0.653"
         style="fill:none;stroke:#000000;stroke-width:0.65979397;stroke-linecap:butt;stroke-linejoin:miter;stroke-miterlimit:10;stroke-opacity:1;stroke-dasharray:none"
         id="path4639"
         inkscape:connector-curvature="0" /><path
         d="m 255.14514,137.5925 c 0,0 0,0 -0.148,0.572 -0.148,0.571 -0.444,1.714 -0.814,2.203 -0.37,0.49 -0.814,0.327 -1.221,-0.598 -0.407,-0.925 -0.777,-2.612 -1.258,-3.428 -0.481,-0.817 -1.073,-0.762 -1.406,0.054 -0.333,0.816 -0.407,2.394 -0.74,3.211 -0.333,0.816 -0.925,0.87 -1.295,0.435 -0.37,-0.435 -0.518,-1.361 -0.888,-1.823 -0.37,-0.463 -0.962,-0.463 -1.332,0.19 -0.37,0.653 -0.518,1.959 -0.592,2.612 -0.074,0.653 -0.074,0.653 -0.074,0.653"
         style="fill:#ffffff;fill-opacity:1;fill-rule:evenodd;stroke:none"
         id="path4641"
         inkscape:connector-curvature="0" /><path
         d="m 255.14514,137.5925 c 0,0 0,0 -0.148,0.572 -0.148,0.571 -0.444,1.714 -0.814,2.203 -0.37,0.49 -0.814,0.327 -1.221,-0.598 -0.407,-0.925 -0.777,-2.612 -1.258,-3.428 -0.481,-0.817 -1.073,-0.762 -1.406,0.054 -0.333,0.816 -0.407,2.394 -0.74,3.211 -0.333,0.816 -0.925,0.87 -1.295,0.435 -0.37,-0.435 -0.518,-1.361 -0.888,-1.823 -0.37,-0.463 -0.962,-0.463 -1.332,0.19 -0.37,0.653 -0.518,1.959 -0.592,2.612 -0.074,0.653 -0.074,0.653 -0.074,0.653"
         style="fill:none;stroke:#000000;stroke-width:0.65979397;stroke-linecap:butt;stroke-linejoin:miter;stroke-miterlimit:10;stroke-opacity:1;stroke-dasharray:none"
         id="path4643"
         inkscape:connector-curvature="0" /><path
         d="m 255.14514,126.4895 c 0,0 0,0 -0.148,0.572 -0.148,0.571 -0.444,1.714 -0.814,2.204 -0.37,0.489 -0.814,0.326 -1.221,-0.599 -0.407,-0.925 -0.777,-2.612 -1.258,-3.428 -0.481,-0.817 -1.073,-0.762 -1.406,0.054 -0.333,0.816 -0.407,2.394 -0.74,3.211 -0.333,0.816 -0.925,0.87 -1.295,0.435 -0.37,-0.435 -0.518,-1.36 -0.888,-1.823 -0.37,-0.462 -0.962,-0.462 -1.332,0.191 -0.37,0.653 -0.518,1.959 -0.592,2.612 -0.074,0.653 -0.074,0.653 -0.074,0.653"
         style="fill:#ffffff;fill-opacity:1;fill-rule:evenodd;stroke:none"
         id="path4645"
         inkscape:connector-curvature="0" /><path
         d="m 255.14514,126.4895 c 0,0 0,0 -0.148,0.572 -0.148,0.571 -0.444,1.714 -0.814,2.204 -0.37,0.489 -0.814,0.326 -1.221,-0.599 -0.407,-0.925 -0.777,-2.612 -1.258,-3.428 -0.481,-0.817 -1.073,-0.762 -1.406,0.054 -0.333,0.816 -0.407,2.394 -0.74,3.211 -0.333,0.816 -0.925,0.87 -1.295,0.435 -0.37,-0.435 -0.518,-1.36 -0.888,-1.823 -0.37,-0.462 -0.962,-0.462 -1.332,0.191 -0.37,0.653 -0.518,1.959 -0.592,2.612 -0.074,0.653 -0.074,0.653 -0.074,0.653"
         style="fill:none;stroke:#000000;stroke-width:0.65979397;stroke-linecap:butt;stroke-linejoin:miter;stroke-miterlimit:10;stroke-opacity:1;stroke-dasharray:none"
         id="path4647"
         inkscape:connector-curvature="0" /><path
         d="m 255.14514,114.3075 c 0,0 0,0 -0.148,0.571 -0.148,0.572 -0.444,1.715 -0.814,2.204 -0.37,0.49 -0.814,0.327 -1.221,-0.598 -0.407,-0.925 -0.777,-2.612 -1.258,-3.429 -0.481,-0.816 -1.073,-0.761 -1.406,0.055 -0.333,0.816 -0.407,2.394 -0.74,3.21 -0.333,0.817 -0.925,0.871 -1.295,0.436 -0.37,-0.436 -0.518,-1.361 -0.888,-1.823 -0.37,-0.463 -0.962,-0.463 -1.332,0.19 -0.37,0.653 -0.518,1.959 -0.592,2.612 -0.074,0.653 -0.074,0.653 -0.074,0.653"
         style="fill:#ffffff;fill-opacity:1;fill-rule:evenodd;stroke:none"
         id="path4649"
         inkscape:connector-curvature="0" /><path
         d="m 255.14514,114.3075 c 0,0 0,0 -0.148,0.571 -0.148,0.572 -0.444,1.715 -0.814,2.204 -0.37,0.49 -0.814,0.327 -1.221,-0.598 -0.407,-0.925 -0.777,-2.612 -1.258,-3.429 -0.481,-0.816 -1.073,-0.761 -1.406,0.055 -0.333,0.816 -0.407,2.394 -0.74,3.21 -0.333,0.817 -0.925,0.871 -1.295,0.436 -0.37,-0.436 -0.518,-1.361 -0.888,-1.823 -0.37,-0.463 -0.962,-0.463 -1.332,0.19 -0.37,0.653 -0.518,1.959 -0.592,2.612 -0.074,0.653 -0.074,0.653 -0.074,0.653"
         style="fill:none;stroke:#000000;stroke-width:0.65979397;stroke-linecap:butt;stroke-linejoin:miter;stroke-miterlimit:10;stroke-opacity:1;stroke-dasharray:none"
         id="path4651"
         inkscape:connector-curvature="0" /><path
         d="m 256.46714,135.3015 -6.26,0.658 -0.329,-4.941 0,-11.201 0.329,-7.248 6.26,0.329"
         style="fill:#ffffff;fill-opacity:1;fill-rule:evenodd;stroke:none"
         id="path4653"
         inkscape:connector-curvature="0" /><path
         d="m 256.46714,135.3015 -6.26,0.658 -0.329,-4.941 0,-11.201 0.329,-7.248 6.26,0.329 0,22.403 z"
         style="fill:none;stroke:#ffffff;stroke-width:0.65979397;stroke-linecap:butt;stroke-linejoin:miter;stroke-miterlimit:10;stroke-opacity:1;stroke-dasharray:none"
         id="path4655"
         inkscape:connector-curvature="0" /><text
         xml:space="preserve"
         style="font-size:7.19999981px;font-style:normal;font-variant:normal;font-weight:bold;font-stretch:normal;line-height:125%;letter-spacing:0px;word-spacing:0px;fill:#000000;fill-opacity:1;stroke:none;font-family:Droid Sans;-inkscape-font-specification:Sans Bold"
         x="112.93127"
         y="256.50043"
         id="text4657"
         sodipodi:linespacing="125%"
         transform="matrix(0,1,1,0,0,0)"><tspan
           sodipodi:role="line"
           id="tspan4659"
           x="112.93127"
           y="256.50043">z치pach</tspan></text>
</g><g
       id="g4665"><path
         inkscape:connector-curvature="0"
         id="path270"
         style="fill:#ffffff;fill-opacity:1;fill-rule:evenodd;stroke:none"
         d="m 250.14514,195.5845 c 0,0 0,0 -1.235,1.853 -1.236,1.854 -3.706,5.56 -3.652,10.021 0.055,4.461 2.636,9.678 3.048,14.194 0.412,4.516 -1.345,8.332 -2.224,10.24 -0.878,1.908 -0.878,1.908 -0.878,1.908" /><path
         inkscape:connector-curvature="0"
         id="path272"
         style="fill:none;stroke:#000000;stroke-width:0.65979397;stroke-linecap:butt;stroke-linejoin:miter;stroke-miterlimit:10;stroke-opacity:1;stroke-dasharray:none"
         d="m 250.14514,195.5845 c 0,0 0,0 -1.235,1.853 -1.236,1.854 -3.706,5.56 -3.652,10.021 0.055,4.461 2.636,9.678 3.048,14.194 0.412,4.516 -1.345,8.332 -2.224,10.24 -0.878,1.908 -0.878,1.908 -0.878,1.908" /><path
         inkscape:connector-curvature="0"
         id="path274"
         style="fill:#ffffff;fill-opacity:1;fill-rule:evenodd;stroke:none"
         d="m 252.70414,197.4005 c 0,0 0,0 -0.989,2.045 -0.988,2.045 -2.965,6.136 -2.663,10.789 0.302,4.654 2.883,9.87 3.295,14.386 0.411,4.516 -1.346,8.332 -2.224,10.24 -0.879,1.908 -0.879,1.908 -0.879,1.908" /><path
         inkscape:connector-curvature="0"
         id="path276"
         style="fill:none;stroke:#000000;stroke-width:0.65979397;stroke-linecap:butt;stroke-linejoin:miter;stroke-miterlimit:10;stroke-opacity:1;stroke-dasharray:none"
         d="m 252.70414,197.4005 c 0,0 0,0 -0.989,2.045 -0.988,2.045 -2.965,6.136 -2.663,10.789 0.302,4.654 2.883,9.87 3.295,14.386 0.411,4.516 -1.346,8.332 -2.224,10.24 -0.879,1.908 -0.879,1.908 -0.879,1.908" /><path
         inkscape:connector-curvature="0"
         id="path278"
         style="fill:#ffffff;fill-opacity:1;fill-rule:evenodd;stroke:none"
         d="m 258.97114,196.9865 c 0,0 0,0 -1.112,1.305 -1.112,1.304 -3.336,3.912 -3.157,7.824 0.178,3.912 2.759,9.128 3.102,14.29 0.343,5.161 -1.551,10.267 -2.498,12.82 -0.947,2.554 -0.947,2.554 -0.947,2.554" /><path
         inkscape:connector-curvature="0"
         id="path280"
         style="fill:none;stroke:#000000;stroke-width:0.65979397;stroke-linecap:butt;stroke-linejoin:miter;stroke-miterlimit:10;stroke-opacity:1;stroke-dasharray:none"
         d="m 258.97114,196.9865 c 0,0 0,0 -1.112,1.305 -1.112,1.304 -3.336,3.912 -3.157,7.824 0.178,3.912 2.759,9.128 3.102,14.29 0.343,5.161 -1.551,10.267 -2.498,12.82 -0.947,2.554 -0.947,2.554 -0.947,2.554" /><path
         inkscape:connector-curvature="0"
         id="path282"
         style="fill:#ffffff;fill-opacity:1;fill-rule:evenodd;stroke:none"
         d="m 255.63714,228.9875 -7.989,0.247 0.412,-11.86 -1.318,-8.977 0.659,-4.366 5.436,-0.658 2.553,2.059 0.412,10.542" /><path
         inkscape:connector-curvature="0"
         id="path284"
         style="fill:none;stroke:#ffffff;stroke-width:0.65979397;stroke-linecap:butt;stroke-linejoin:miter;stroke-miterlimit:10;stroke-opacity:1;stroke-dasharray:none"
         d="m 255.63714,228.9875 -7.989,0.247 0.412,-11.86 -1.318,-8.977 0.659,-4.366 5.436,-0.658 2.553,2.059 0.412,10.542 -0.165,13.013 z" /><text
         transform="matrix(0,1,1,0,0,0)"
         sodipodi:linespacing="125%"
         id="text4661"
         y="253.8275"
         x="205.48141"
         style="font-size:7.19999981px;font-style:normal;font-variant:normal;font-weight:bold;font-stretch:normal;line-height:125%;letter-spacing:0px;word-spacing:0px;fill:#000000;fill-opacity:1;stroke:none;font-family:Droid Sans;-inkscape-font-specification:Sans Bold"
         xml:space="preserve"><tspan
           y="253.8275"
           x="205.48141"
           id="tspan4663"
           sodipodi:role="line">v치nek</tspan></text>
</g><g
       id="g4677"
       transform="matrix(0.62944933,0,0,0.62944933,131.14302,32.968163)"><path
         d="m 250.14514,195.5845 c 0,0 0,0 -1.235,1.853 -1.236,1.854 -3.706,5.56 -3.652,10.021 0.055,4.461 2.636,9.678 3.048,14.194 0.412,4.516 -1.345,8.332 -2.224,10.24 -0.878,1.908 -0.878,1.908 -0.878,1.908"
         style="fill:#ffffff;fill-opacity:1;fill-rule:evenodd;stroke:none"
         id="path4679"
         inkscape:connector-curvature="0" /><path
         d="m 250.14514,195.5845 c 0,0 0,0 -1.235,1.853 -1.236,1.854 -3.706,5.56 -3.652,10.021 0.055,4.461 2.636,9.678 3.048,14.194 0.412,4.516 -1.345,8.332 -2.224,10.24 -0.878,1.908 -0.878,1.908 -0.878,1.908"
         style="fill:none;stroke:#000000;stroke-width:0.65979397;stroke-linecap:butt;stroke-linejoin:miter;stroke-miterlimit:10;stroke-opacity:1;stroke-dasharray:none"
         id="path4681"
         inkscape:connector-curvature="0" /><path
         d="m 252.70414,197.4005 c 0,0 0,0 -0.989,2.045 -0.988,2.045 -2.965,6.136 -2.663,10.789 0.302,4.654 2.883,9.87 3.295,14.386 0.411,4.516 -1.346,8.332 -2.224,10.24 -0.879,1.908 -0.879,1.908 -0.879,1.908"
         style="fill:#ffffff;fill-opacity:1;fill-rule:evenodd;stroke:none"
         id="path4683"
         inkscape:connector-curvature="0" /><path
         d="m 252.70414,197.4005 c 0,0 0,0 -0.989,2.045 -0.988,2.045 -2.965,6.136 -2.663,10.789 0.302,4.654 2.883,9.87 3.295,14.386 0.411,4.516 -1.346,8.332 -2.224,10.24 -0.879,1.908 -0.879,1.908 -0.879,1.908"
         style="fill:none;stroke:#000000;stroke-width:0.65979397;stroke-linecap:butt;stroke-linejoin:miter;stroke-miterlimit:10;stroke-opacity:1;stroke-dasharray:none"
         id="path4685"
         inkscape:connector-curvature="0" /><path
         d="m 258.97114,196.9865 c 0,0 0,0 -1.112,1.305 -1.112,1.304 -3.336,3.912 -3.157,7.824 0.178,3.912 2.759,9.128 3.102,14.29 0.343,5.161 -1.551,10.267 -2.498,12.82 -0.947,2.554 -0.947,2.554 -0.947,2.554"
         style="fill:#ffffff;fill-opacity:1;fill-rule:evenodd;stroke:none"
         id="path4687"
         inkscape:connector-curvature="0" /><path
         d="m 258.97114,196.9865 c 0,0 0,0 -1.112,1.305 -1.112,1.304 -3.336,3.912 -3.157,7.824 0.178,3.912 2.759,9.128 3.102,14.29 0.343,5.161 -1.551,10.267 -2.498,12.82 -0.947,2.554 -0.947,2.554 -0.947,2.554"
         style="fill:none;stroke:#000000;stroke-width:0.65979397;stroke-linecap:butt;stroke-linejoin:miter;stroke-miterlimit:10;stroke-opacity:1;stroke-dasharray:none"
         id="path4689"
         inkscape:connector-curvature="0" /><path
         d="m 255.63714,228.9875 -7.989,0.247 0.412,-11.86 -1.318,-8.977 0.659,-4.366 5.436,-0.658 2.553,2.059 0.412,10.542"
         style="fill:#ffffff;fill-opacity:1;fill-rule:evenodd;stroke:none"
         id="path4691"
         inkscape:connector-curvature="0" /><path
         d="m 255.63714,228.9875 -7.989,0.247 0.412,-11.86 -1.318,-8.977 0.659,-4.366 5.436,-0.658 2.553,2.059 0.412,10.542 -0.165,13.013 z"
         style="fill:none;stroke:#ffffff;stroke-width:0.65979397;stroke-linecap:butt;stroke-linejoin:miter;stroke-miterlimit:10;stroke-opacity:1;stroke-dasharray:none"
         id="path4693"
         inkscape:connector-curvature="0" /><text
         xml:space="preserve"
         style="font-size:7.19999981px;font-style:normal;font-variant:normal;font-weight:bold;font-stretch:normal;line-height:125%;letter-spacing:0px;word-spacing:0px;fill:#000000;fill-opacity:1;stroke:none;font-family:Droid Sans;-inkscape-font-specification:Sans Bold"
         x="205.48141"
         y="253.8275"
         id="text4695"
         sodipodi:linespacing="125%"
         transform="matrix(0,1,1,0,0,0)"><tspan
           sodipodi:role="line"
           id="tspan4697"
           x="205.48141"
           y="253.8275">v치nek</tspan></text>
</g><g
       transform="matrix(0.67051869,0,0,0.67051869,134.87495,84.969023)"
       id="g4699"><path
         d="m 255.14514,108.8725 c 0,0 0,0 -0.148,0.571 -0.148,0.571 -0.444,1.714 -0.814,2.204 -0.37,0.49 -0.814,0.326 -1.221,-0.599 -0.407,-0.925 -0.777,-2.612 -1.258,-3.428 -0.481,-0.816 -1.073,-0.762 -1.406,0.054 -0.333,0.817 -0.407,2.395 -0.74,3.211 -0.333,0.816 -0.925,0.871 -1.295,0.435 -0.37,-0.435 -0.518,-1.36 -0.888,-1.823 -0.37,-0.462 -0.962,-0.462 -1.332,0.191 -0.37,0.653 -0.518,1.959 -0.592,2.612 -0.074,0.653 -0.074,0.653 -0.074,0.653"
         style="fill:#ffffff;fill-opacity:1;fill-rule:evenodd;stroke:none"
         id="path4701"
         inkscape:connector-curvature="0" /><path
         d="m 255.14514,108.8725 c 0,0 0,0 -0.148,0.571 -0.148,0.571 -0.444,1.714 -0.814,2.204 -0.37,0.49 -0.814,0.326 -1.221,-0.599 -0.407,-0.925 -0.777,-2.612 -1.258,-3.428 -0.481,-0.816 -1.073,-0.762 -1.406,0.054 -0.333,0.817 -0.407,2.395 -0.74,3.211 -0.333,0.816 -0.925,0.871 -1.295,0.435 -0.37,-0.435 -0.518,-1.36 -0.888,-1.823 -0.37,-0.462 -0.962,-0.462 -1.332,0.191 -0.37,0.653 -0.518,1.959 -0.592,2.612 -0.074,0.653 -0.074,0.653 -0.074,0.653"
         style="fill:none;stroke:#000000;stroke-width:0.65979397;stroke-linecap:butt;stroke-linejoin:miter;stroke-miterlimit:10;stroke-opacity:1;stroke-dasharray:none"
         id="path4703"
         inkscape:connector-curvature="0" /><path
         d="m 255.14514,121.4655 c 0,0 0,0 -0.148,0.572 -0.148,0.571 -0.444,1.714 -0.814,2.204 -0.37,0.489 -0.814,0.326 -1.221,-0.599 -0.407,-0.925 -0.777,-2.612 -1.258,-3.428 -0.481,-0.816 -1.073,-0.762 -1.406,0.054 -0.333,0.817 -0.407,2.395 -0.74,3.211 -0.333,0.816 -0.925,0.871 -1.295,0.435 -0.37,-0.435 -0.518,-1.36 -0.888,-1.823 -0.37,-0.462 -0.962,-0.462 -1.332,0.191 -0.37,0.653 -0.518,1.959 -0.592,2.612 -0.074,0.653 -0.074,0.653 -0.074,0.653"
         style="fill:#ffffff;fill-opacity:1;fill-rule:evenodd;stroke:none"
         id="path4705"
         inkscape:connector-curvature="0" /><path
         d="m 255.14514,121.4655 c 0,0 0,0 -0.148,0.572 -0.148,0.571 -0.444,1.714 -0.814,2.204 -0.37,0.489 -0.814,0.326 -1.221,-0.599 -0.407,-0.925 -0.777,-2.612 -1.258,-3.428 -0.481,-0.816 -1.073,-0.762 -1.406,0.054 -0.333,0.817 -0.407,2.395 -0.74,3.211 -0.333,0.816 -0.925,0.871 -1.295,0.435 -0.37,-0.435 -0.518,-1.36 -0.888,-1.823 -0.37,-0.462 -0.962,-0.462 -1.332,0.191 -0.37,0.653 -0.518,1.959 -0.592,2.612 -0.074,0.653 -0.074,0.653 -0.074,0.653"
         style="fill:none;stroke:#000000;stroke-width:0.65979397;stroke-linecap:butt;stroke-linejoin:miter;stroke-miterlimit:10;stroke-opacity:1;stroke-dasharray:none"
         id="path4707"
         inkscape:connector-curvature="0" /><path
         d="m 255.14514,131.4245 c 0,0 0,0 -0.148,0.571 -0.148,0.572 -0.444,1.714 -0.814,2.204 -0.37,0.49 -0.814,0.327 -1.221,-0.599 -0.407,-0.925 -0.777,-2.612 -1.258,-3.428 -0.481,-0.816 -1.073,-0.762 -1.406,0.055 -0.333,0.816 -0.407,2.394 -0.74,3.21 -0.333,0.816 -0.925,0.871 -1.295,0.436 -0.37,-0.436 -0.518,-1.361 -0.888,-1.823 -0.37,-0.463 -0.962,-0.463 -1.332,0.19 -0.37,0.653 -0.518,1.959 -0.592,2.612 -0.074,0.653 -0.074,0.653 -0.074,0.653"
         style="fill:#ffffff;fill-opacity:1;fill-rule:evenodd;stroke:none"
         id="path4709"
         inkscape:connector-curvature="0" /><path
         d="m 255.14514,131.4245 c 0,0 0,0 -0.148,0.571 -0.148,0.572 -0.444,1.714 -0.814,2.204 -0.37,0.49 -0.814,0.327 -1.221,-0.599 -0.407,-0.925 -0.777,-2.612 -1.258,-3.428 -0.481,-0.816 -1.073,-0.762 -1.406,0.055 -0.333,0.816 -0.407,2.394 -0.74,3.21 -0.333,0.816 -0.925,0.871 -1.295,0.436 -0.37,-0.436 -0.518,-1.361 -0.888,-1.823 -0.37,-0.463 -0.962,-0.463 -1.332,0.19 -0.37,0.653 -0.518,1.959 -0.592,2.612 -0.074,0.653 -0.074,0.653 -0.074,0.653"
         style="fill:none;stroke:#000000;stroke-width:0.65979397;stroke-linecap:butt;stroke-linejoin:miter;stroke-miterlimit:10;stroke-opacity:1;stroke-dasharray:none"
         id="path4711"
         inkscape:connector-curvature="0" /><path
         d="m 255.14514,137.5925 c 0,0 0,0 -0.148,0.572 -0.148,0.571 -0.444,1.714 -0.814,2.203 -0.37,0.49 -0.814,0.327 -1.221,-0.598 -0.407,-0.925 -0.777,-2.612 -1.258,-3.428 -0.481,-0.817 -1.073,-0.762 -1.406,0.054 -0.333,0.816 -0.407,2.394 -0.74,3.211 -0.333,0.816 -0.925,0.87 -1.295,0.435 -0.37,-0.435 -0.518,-1.361 -0.888,-1.823 -0.37,-0.463 -0.962,-0.463 -1.332,0.19 -0.37,0.653 -0.518,1.959 -0.592,2.612 -0.074,0.653 -0.074,0.653 -0.074,0.653"
         style="fill:#ffffff;fill-opacity:1;fill-rule:evenodd;stroke:none"
         id="path4713"
         inkscape:connector-curvature="0" /><path
         d="m 255.14514,137.5925 c 0,0 0,0 -0.148,0.572 -0.148,0.571 -0.444,1.714 -0.814,2.203 -0.37,0.49 -0.814,0.327 -1.221,-0.598 -0.407,-0.925 -0.777,-2.612 -1.258,-3.428 -0.481,-0.817 -1.073,-0.762 -1.406,0.054 -0.333,0.816 -0.407,2.394 -0.74,3.211 -0.333,0.816 -0.925,0.87 -1.295,0.435 -0.37,-0.435 -0.518,-1.361 -0.888,-1.823 -0.37,-0.463 -0.962,-0.463 -1.332,0.19 -0.37,0.653 -0.518,1.959 -0.592,2.612 -0.074,0.653 -0.074,0.653 -0.074,0.653"
         style="fill:none;stroke:#000000;stroke-width:0.65979397;stroke-linecap:butt;stroke-linejoin:miter;stroke-miterlimit:10;stroke-opacity:1;stroke-dasharray:none"
         id="path4715"
         inkscape:connector-curvature="0" /><path
         d="m 255.14514,126.4895 c 0,0 0,0 -0.148,0.572 -0.148,0.571 -0.444,1.714 -0.814,2.204 -0.37,0.489 -0.814,0.326 -1.221,-0.599 -0.407,-0.925 -0.777,-2.612 -1.258,-3.428 -0.481,-0.817 -1.073,-0.762 -1.406,0.054 -0.333,0.816 -0.407,2.394 -0.74,3.211 -0.333,0.816 -0.925,0.87 -1.295,0.435 -0.37,-0.435 -0.518,-1.36 -0.888,-1.823 -0.37,-0.462 -0.962,-0.462 -1.332,0.191 -0.37,0.653 -0.518,1.959 -0.592,2.612 -0.074,0.653 -0.074,0.653 -0.074,0.653"
         style="fill:#ffffff;fill-opacity:1;fill-rule:evenodd;stroke:none"
         id="path4717"
         inkscape:connector-curvature="0" /><path
         d="m 255.14514,126.4895 c 0,0 0,0 -0.148,0.572 -0.148,0.571 -0.444,1.714 -0.814,2.204 -0.37,0.489 -0.814,0.326 -1.221,-0.599 -0.407,-0.925 -0.777,-2.612 -1.258,-3.428 -0.481,-0.817 -1.073,-0.762 -1.406,0.054 -0.333,0.816 -0.407,2.394 -0.74,3.211 -0.333,0.816 -0.925,0.87 -1.295,0.435 -0.37,-0.435 -0.518,-1.36 -0.888,-1.823 -0.37,-0.462 -0.962,-0.462 -1.332,0.191 -0.37,0.653 -0.518,1.959 -0.592,2.612 -0.074,0.653 -0.074,0.653 -0.074,0.653"
         style="fill:none;stroke:#000000;stroke-width:0.65979397;stroke-linecap:butt;stroke-linejoin:miter;stroke-miterlimit:10;stroke-opacity:1;stroke-dasharray:none"
         id="path4719"
         inkscape:connector-curvature="0" /><path
         d="m 255.14514,114.3075 c 0,0 0,0 -0.148,0.571 -0.148,0.572 -0.444,1.715 -0.814,2.204 -0.37,0.49 -0.814,0.327 -1.221,-0.598 -0.407,-0.925 -0.777,-2.612 -1.258,-3.429 -0.481,-0.816 -1.073,-0.761 -1.406,0.055 -0.333,0.816 -0.407,2.394 -0.74,3.21 -0.333,0.817 -0.925,0.871 -1.295,0.436 -0.37,-0.436 -0.518,-1.361 -0.888,-1.823 -0.37,-0.463 -0.962,-0.463 -1.332,0.19 -0.37,0.653 -0.518,1.959 -0.592,2.612 -0.074,0.653 -0.074,0.653 -0.074,0.653"
         style="fill:#ffffff;fill-opacity:1;fill-rule:evenodd;stroke:none"
         id="path4721"
         inkscape:connector-curvature="0" /><path
         d="m 255.14514,114.3075 c 0,0 0,0 -0.148,0.571 -0.148,0.572 -0.444,1.715 -0.814,2.204 -0.37,0.49 -0.814,0.327 -1.221,-0.598 -0.407,-0.925 -0.777,-2.612 -1.258,-3.429 -0.481,-0.816 -1.073,-0.761 -1.406,0.055 -0.333,0.816 -0.407,2.394 -0.74,3.21 -0.333,0.817 -0.925,0.871 -1.295,0.436 -0.37,-0.436 -0.518,-1.361 -0.888,-1.823 -0.37,-0.463 -0.962,-0.463 -1.332,0.19 -0.37,0.653 -0.518,1.959 -0.592,2.612 -0.074,0.653 -0.074,0.653 -0.074,0.653"
         style="fill:none;stroke:#000000;stroke-width:0.65979397;stroke-linecap:butt;stroke-linejoin:miter;stroke-miterlimit:10;stroke-opacity:1;stroke-dasharray:none"
         id="path4723"
         inkscape:connector-curvature="0" /><path
         d="m 256.46714,135.3015 -6.26,0.658 -0.329,-4.941 0,-11.201 0.329,-7.248 6.26,0.329"
         style="fill:#ffffff;fill-opacity:1;fill-rule:evenodd;stroke:none"
         id="path4725"
         inkscape:connector-curvature="0" /><path
         d="m 256.46714,135.3015 -6.26,0.658 -0.329,-4.941 0,-11.201 0.329,-7.248 6.26,0.329 0,22.403 z"
         style="fill:none;stroke:#ffffff;stroke-width:0.65979397;stroke-linecap:butt;stroke-linejoin:miter;stroke-miterlimit:10;stroke-opacity:1;stroke-dasharray:none"
         id="path4727"
         inkscape:connector-curvature="0" /><text
         xml:space="preserve"
         style="font-size:7.19999981px;font-style:normal;font-variant:normal;font-weight:bold;font-stretch:normal;line-height:125%;letter-spacing:0px;word-spacing:0px;fill:#000000;fill-opacity:1;stroke:none;font-family:Droid Sans;-inkscape-font-specification:Sans Bold"
         x="112.93127"
         y="256.50043"
         id="text4729"
         sodipodi:linespacing="125%"
         transform="matrix(0,1,1,0,0,0)"><tspan
           sodipodi:role="line"
           id="tspan4731"
           x="112.93127"
           y="256.50043">z치pach</tspan></text>
</g><g
       id="g4733"
       transform="translate(51.2,44.8)"><path
         d="m 250.14514,195.5845 c 0,0 0,0 -1.235,1.853 -1.236,1.854 -3.706,5.56 -3.652,10.021 0.055,4.461 2.636,9.678 3.048,14.194 0.412,4.516 -1.345,8.332 -2.224,10.24 -0.878,1.908 -0.878,1.908 -0.878,1.908"
         style="fill:#ffffff;fill-opacity:1;fill-rule:evenodd;stroke:none"
         id="path4735"
         inkscape:connector-curvature="0" /><path
         d="m 250.14514,195.5845 c 0,0 0,0 -1.235,1.853 -1.236,1.854 -3.706,5.56 -3.652,10.021 0.055,4.461 2.636,9.678 3.048,14.194 0.412,4.516 -1.345,8.332 -2.224,10.24 -0.878,1.908 -0.878,1.908 -0.878,1.908"
         style="fill:none;stroke:#000000;stroke-width:0.65979397;stroke-linecap:butt;stroke-linejoin:miter;stroke-miterlimit:10;stroke-opacity:1;stroke-dasharray:none"
         id="path4737"
         inkscape:connector-curvature="0" /><path
         d="m 252.70414,197.4005 c 0,0 0,0 -0.989,2.045 -0.988,2.045 -2.965,6.136 -2.663,10.789 0.302,4.654 2.883,9.87 3.295,14.386 0.411,4.516 -1.346,8.332 -2.224,10.24 -0.879,1.908 -0.879,1.908 -0.879,1.908"
         style="fill:#ffffff;fill-opacity:1;fill-rule:evenodd;stroke:none"
         id="path4739"
         inkscape:connector-curvature="0" /><path
         d="m 252.70414,197.4005 c 0,0 0,0 -0.989,2.045 -0.988,2.045 -2.965,6.136 -2.663,10.789 0.302,4.654 2.883,9.87 3.295,14.386 0.411,4.516 -1.346,8.332 -2.224,10.24 -0.879,1.908 -0.879,1.908 -0.879,1.908"
         style="fill:none;stroke:#000000;stroke-width:0.65979397;stroke-linecap:butt;stroke-linejoin:miter;stroke-miterlimit:10;stroke-opacity:1;stroke-dasharray:none"
         id="path4741"
         inkscape:connector-curvature="0" /><path
         d="m 258.97114,196.9865 c 0,0 0,0 -1.112,1.305 -1.112,1.304 -3.336,3.912 -3.157,7.824 0.178,3.912 2.759,9.128 3.102,14.29 0.343,5.161 -1.551,10.267 -2.498,12.82 -0.947,2.554 -0.947,2.554 -0.947,2.554"
         style="fill:#ffffff;fill-opacity:1;fill-rule:evenodd;stroke:none"
         id="path4743"
         inkscape:connector-curvature="0" /><path
         d="m 258.97114,196.9865 c 0,0 0,0 -1.112,1.305 -1.112,1.304 -3.336,3.912 -3.157,7.824 0.178,3.912 2.759,9.128 3.102,14.29 0.343,5.161 -1.551,10.267 -2.498,12.82 -0.947,2.554 -0.947,2.554 -0.947,2.554"
         style="fill:none;stroke:#000000;stroke-width:0.65979397;stroke-linecap:butt;stroke-linejoin:miter;stroke-miterlimit:10;stroke-opacity:1;stroke-dasharray:none"
         id="path4745"
         inkscape:connector-curvature="0" /><path
         d="m 255.63714,228.9875 -7.989,0.247 0.412,-11.86 -1.318,-8.977 0.659,-4.366 5.436,-0.658 2.553,2.059 0.412,10.542"
         style="fill:#ffffff;fill-opacity:1;fill-rule:evenodd;stroke:none"
         id="path4747"
         inkscape:connector-curvature="0" /><path
         d="m 255.63714,228.9875 -7.989,0.247 0.412,-11.86 -1.318,-8.977 0.659,-4.366 5.436,-0.658 2.553,2.059 0.412,10.542 -0.165,13.013 z"
         style="fill:none;stroke:#ffffff;stroke-width:0.65979397;stroke-linecap:butt;stroke-linejoin:miter;stroke-miterlimit:10;stroke-opacity:1;stroke-dasharray:none"
         id="path4749"
         inkscape:connector-curvature="0" /><text
         xml:space="preserve"
         style="font-size:7.19999981px;font-style:normal;font-variant:normal;font-weight:bold;font-stretch:normal;line-height:125%;letter-spacing:0px;word-spacing:0px;fill:#000000;fill-opacity:1;stroke:none;font-family:Droid Sans;-inkscape-font-specification:Sans Bold"
         x="205.48141"
         y="253.8275"
         id="text4751"
         sodipodi:linespacing="125%"
         transform="matrix(0,1,1,0,0,0)"><tspan
           sodipodi:role="line"
           id="tspan4753"
           x="205.48141"
           y="253.8275">v치nek</tspan></text>
</g><g
       transform="translate(144.52707,44.8)"
       id="g4755"><path
         inkscape:connector-curvature="0"
         id="path4757"
         style="fill:#ffffff;fill-opacity:1;fill-rule:evenodd;stroke:none"
         d="m 250.14514,195.5845 c 0,0 0,0 -1.235,1.853 -1.236,1.854 -3.706,5.56 -3.652,10.021 0.055,4.461 2.636,9.678 3.048,14.194 0.412,4.516 -1.345,8.332 -2.224,10.24 -0.878,1.908 -0.878,1.908 -0.878,1.908" /><path
         inkscape:connector-curvature="0"
         id="path4759"
         style="fill:none;stroke:#000000;stroke-width:0.65979397;stroke-linecap:butt;stroke-linejoin:miter;stroke-miterlimit:10;stroke-opacity:1;stroke-dasharray:none"
         d="m 250.14514,195.5845 c 0,0 0,0 -1.235,1.853 -1.236,1.854 -3.706,5.56 -3.652,10.021 0.055,4.461 2.636,9.678 3.048,14.194 0.412,4.516 -1.345,8.332 -2.224,10.24 -0.878,1.908 -0.878,1.908 -0.878,1.908" /><path
         inkscape:connector-curvature="0"
         id="path4761"
         style="fill:#ffffff;fill-opacity:1;fill-rule:evenodd;stroke:none"
         d="m 252.70414,197.4005 c 0,0 0,0 -0.989,2.045 -0.988,2.045 -2.965,6.136 -2.663,10.789 0.302,4.654 2.883,9.87 3.295,14.386 0.411,4.516 -1.346,8.332 -2.224,10.24 -0.879,1.908 -0.879,1.908 -0.879,1.908" /><path
         inkscape:connector-curvature="0"
         id="path4763"
         style="fill:none;stroke:#000000;stroke-width:0.65979397;stroke-linecap:butt;stroke-linejoin:miter;stroke-miterlimit:10;stroke-opacity:1;stroke-dasharray:none"
         d="m 252.70414,197.4005 c 0,0 0,0 -0.989,2.045 -0.988,2.045 -2.965,6.136 -2.663,10.789 0.302,4.654 2.883,9.87 3.295,14.386 0.411,4.516 -1.346,8.332 -2.224,10.24 -0.879,1.908 -0.879,1.908 -0.879,1.908" /><path
         inkscape:connector-curvature="0"
         id="path4765"
         style="fill:#ffffff;fill-opacity:1;fill-rule:evenodd;stroke:none"
         d="m 258.97114,196.9865 c 0,0 0,0 -1.112,1.305 -1.112,1.304 -3.336,3.912 -3.157,7.824 0.178,3.912 2.759,9.128 3.102,14.29 0.343,5.161 -1.551,10.267 -2.498,12.82 -0.947,2.554 -0.947,2.554 -0.947,2.554" /><path
         inkscape:connector-curvature="0"
         id="path4767"
         style="fill:none;stroke:#000000;stroke-width:0.65979397;stroke-linecap:butt;stroke-linejoin:miter;stroke-miterlimit:10;stroke-opacity:1;stroke-dasharray:none"
         d="m 258.97114,196.9865 c 0,0 0,0 -1.112,1.305 -1.112,1.304 -3.336,3.912 -3.157,7.824 0.178,3.912 2.759,9.128 3.102,14.29 0.343,5.161 -1.551,10.267 -2.498,12.82 -0.947,2.554 -0.947,2.554 -0.947,2.554" /><path
         inkscape:connector-curvature="0"
         id="path4769"
         style="fill:#ffffff;fill-opacity:1;fill-rule:evenodd;stroke:none"
         d="m 255.63714,228.9875 -7.989,0.247 0.412,-11.86 -1.318,-8.977 0.659,-4.366 5.436,-0.658 2.553,2.059 0.412,10.542" /><path
         inkscape:connector-curvature="0"
         id="path4771"
         style="fill:none;stroke:#ffffff;stroke-width:0.65979397;stroke-linecap:butt;stroke-linejoin:miter;stroke-miterlimit:10;stroke-opacity:1;stroke-dasharray:none"
         d="m 255.63714,228.9875 -7.989,0.247 0.412,-11.86 -1.318,-8.977 0.659,-4.366 5.436,-0.658 2.553,2.059 0.412,10.542 -0.165,13.013 z" /><text
         transform="matrix(0,1,1,0,0,0)"
         sodipodi:linespacing="125%"
         id="text4773"
         y="253.8275"
         x="205.48141"
         style="font-size:7.19999981px;font-style:normal;font-variant:normal;font-weight:bold;font-stretch:normal;line-height:125%;letter-spacing:0px;word-spacing:0px;fill:#000000;fill-opacity:1;stroke:none;font-family:Droid Sans;-inkscape-font-specification:Sans Bold"
         xml:space="preserve"><tspan
           y="253.8275"
           x="205.48141"
           id="tspan4775"
           sodipodi:role="line">v치nek</tspan></text>
</g><g
       id="g4777"
       transform="translate(100.49889,0.80939365)"><path
         d="m 250.14514,195.5845 c 0,0 0,0 -1.235,1.853 -1.236,1.854 -3.706,5.56 -3.652,10.021 0.055,4.461 2.636,9.678 3.048,14.194 0.412,4.516 -1.345,8.332 -2.224,10.24 -0.878,1.908 -0.878,1.908 -0.878,1.908"
         style="fill:#ffffff;fill-opacity:1;fill-rule:evenodd;stroke:none"
         id="path4779"
         inkscape:connector-curvature="0" /><path
         d="m 250.14514,195.5845 c 0,0 0,0 -1.235,1.853 -1.236,1.854 -3.706,5.56 -3.652,10.021 0.055,4.461 2.636,9.678 3.048,14.194 0.412,4.516 -1.345,8.332 -2.224,10.24 -0.878,1.908 -0.878,1.908 -0.878,1.908"
         style="fill:none;stroke:#000000;stroke-width:0.65979397;stroke-linecap:butt;stroke-linejoin:miter;stroke-miterlimit:10;stroke-opacity:1;stroke-dasharray:none"
         id="path4781"
         inkscape:connector-curvature="0" /><path
         d="m 252.70414,197.4005 c 0,0 0,0 -0.989,2.045 -0.988,2.045 -2.965,6.136 -2.663,10.789 0.302,4.654 2.883,9.87 3.295,14.386 0.411,4.516 -1.346,8.332 -2.224,10.24 -0.879,1.908 -0.879,1.908 -0.879,1.908"
         style="fill:#ffffff;fill-opacity:1;fill-rule:evenodd;stroke:none"
         id="path4783"
         inkscape:connector-curvature="0" /><path
         d="m 252.70414,197.4005 c 0,0 0,0 -0.989,2.045 -0.988,2.045 -2.965,6.136 -2.663,10.789 0.302,4.654 2.883,9.87 3.295,14.386 0.411,4.516 -1.346,8.332 -2.224,10.24 -0.879,1.908 -0.879,1.908 -0.879,1.908"
         style="fill:none;stroke:#000000;stroke-width:0.65979397;stroke-linecap:butt;stroke-linejoin:miter;stroke-miterlimit:10;stroke-opacity:1;stroke-dasharray:none"
         id="path4785"
         inkscape:connector-curvature="0" /><path
         d="m 258.97114,196.9865 c 0,0 0,0 -1.112,1.305 -1.112,1.304 -3.336,3.912 -3.157,7.824 0.178,3.912 2.759,9.128 3.102,14.29 0.343,5.161 -1.551,10.267 -2.498,12.82 -0.947,2.554 -0.947,2.554 -0.947,2.554"
         style="fill:#ffffff;fill-opacity:1;fill-rule:evenodd;stroke:none"
         id="path4787"
         inkscape:connector-curvature="0" /><path
         d="m 258.97114,196.9865 c 0,0 0,0 -1.112,1.305 -1.112,1.304 -3.336,3.912 -3.157,7.824 0.178,3.912 2.759,9.128 3.102,14.29 0.343,5.161 -1.551,10.267 -2.498,12.82 -0.947,2.554 -0.947,2.554 -0.947,2.554"
         style="fill:none;stroke:#000000;stroke-width:0.65979397;stroke-linecap:butt;stroke-linejoin:miter;stroke-miterlimit:10;stroke-opacity:1;stroke-dasharray:none"
         id="path4789"
         inkscape:connector-curvature="0" /><path
         d="m 255.63714,228.9875 -7.989,0.247 0.412,-11.86 -1.318,-8.977 0.659,-4.366 5.436,-0.658 2.553,2.059 0.412,10.542"
         style="fill:#ffffff;fill-opacity:1;fill-rule:evenodd;stroke:none"
         id="path4791"
         inkscape:connector-curvature="0" /><path
         d="m 255.63714,228.9875 -7.989,0.247 0.412,-11.86 -1.318,-8.977 0.659,-4.366 5.436,-0.658 2.553,2.059 0.412,10.542 -0.165,13.013 z"
         style="fill:none;stroke:#ffffff;stroke-width:0.65979397;stroke-linecap:butt;stroke-linejoin:miter;stroke-miterlimit:10;stroke-opacity:1;stroke-dasharray:none"
         id="path4793"
         inkscape:connector-curvature="0" /><text
         xml:space="preserve"
         style="font-size:7.19999981px;font-style:normal;font-variant:normal;font-weight:bold;font-stretch:normal;line-height:125%;letter-spacing:0px;word-spacing:0px;fill:#000000;fill-opacity:1;stroke:none;font-family:Droid Sans;-inkscape-font-specification:Sans Bold"
         x="205.48141"
         y="253.8275"
         id="text4795"
         sodipodi:linespacing="125%"
         transform="matrix(0,1,1,0,0,0)"><tspan
           sodipodi:role="line"
           id="tspan4797"
           x="205.48141"
           y="253.8275">v치nek</tspan></text>
</g><g
       id="g4799"
       transform="translate(144.52707,-46.4)"><path
         d="m 250.14514,195.5845 c 0,0 0,0 -1.235,1.853 -1.236,1.854 -3.706,5.56 -3.652,10.021 0.055,4.461 2.636,9.678 3.048,14.194 0.412,4.516 -1.345,8.332 -2.224,10.24 -0.878,1.908 -0.878,1.908 -0.878,1.908"
         style="fill:#ffffff;fill-opacity:1;fill-rule:evenodd;stroke:none"
         id="path4801"
         inkscape:connector-curvature="0" /><path
         d="m 250.14514,195.5845 c 0,0 0,0 -1.235,1.853 -1.236,1.854 -3.706,5.56 -3.652,10.021 0.055,4.461 2.636,9.678 3.048,14.194 0.412,4.516 -1.345,8.332 -2.224,10.24 -0.878,1.908 -0.878,1.908 -0.878,1.908"
         style="fill:none;stroke:#000000;stroke-width:0.65979397;stroke-linecap:butt;stroke-linejoin:miter;stroke-miterlimit:10;stroke-opacity:1;stroke-dasharray:none"
         id="path4803"
         inkscape:connector-curvature="0" /><path
         d="m 252.70414,197.4005 c 0,0 0,0 -0.989,2.045 -0.988,2.045 -2.965,6.136 -2.663,10.789 0.302,4.654 2.883,9.87 3.295,14.386 0.411,4.516 -1.346,8.332 -2.224,10.24 -0.879,1.908 -0.879,1.908 -0.879,1.908"
         style="fill:#ffffff;fill-opacity:1;fill-rule:evenodd;stroke:none"
         id="path4805"
         inkscape:connector-curvature="0" /><path
         d="m 252.70414,197.4005 c 0,0 0,0 -0.989,2.045 -0.988,2.045 -2.965,6.136 -2.663,10.789 0.302,4.654 2.883,9.87 3.295,14.386 0.411,4.516 -1.346,8.332 -2.224,10.24 -0.879,1.908 -0.879,1.908 -0.879,1.908"
         style="fill:none;stroke:#000000;stroke-width:0.65979397;stroke-linecap:butt;stroke-linejoin:miter;stroke-miterlimit:10;stroke-opacity:1;stroke-dasharray:none"
         id="path4807"
         inkscape:connector-curvature="0" /><path
         d="m 258.97114,196.9865 c 0,0 0,0 -1.112,1.305 -1.112,1.304 -3.336,3.912 -3.157,7.824 0.178,3.912 2.759,9.128 3.102,14.29 0.343,5.161 -1.551,10.267 -2.498,12.82 -0.947,2.554 -0.947,2.554 -0.947,2.554"
         style="fill:#ffffff;fill-opacity:1;fill-rule:evenodd;stroke:none"
         id="path4809"
         inkscape:connector-curvature="0" /><path
         d="m 258.97114,196.9865 c 0,0 0,0 -1.112,1.305 -1.112,1.304 -3.336,3.912 -3.157,7.824 0.178,3.912 2.759,9.128 3.102,14.29 0.343,5.161 -1.551,10.267 -2.498,12.82 -0.947,2.554 -0.947,2.554 -0.947,2.554"
         style="fill:none;stroke:#000000;stroke-width:0.65979397;stroke-linecap:butt;stroke-linejoin:miter;stroke-miterlimit:10;stroke-opacity:1;stroke-dasharray:none"
         id="path4811"
         inkscape:connector-curvature="0" /><path
         d="m 255.63714,228.9875 -7.989,0.247 0.412,-11.86 -1.318,-8.977 0.659,-4.366 5.436,-0.658 2.553,2.059 0.412,10.542"
         style="fill:#ffffff;fill-opacity:1;fill-rule:evenodd;stroke:none"
         id="path4813"
         inkscape:connector-curvature="0" /><path
         d="m 255.63714,228.9875 -7.989,0.247 0.412,-11.86 -1.318,-8.977 0.659,-4.366 5.436,-0.658 2.553,2.059 0.412,10.542 -0.165,13.013 z"
         style="fill:none;stroke:#ffffff;stroke-width:0.65979397;stroke-linecap:butt;stroke-linejoin:miter;stroke-miterlimit:10;stroke-opacity:1;stroke-dasharray:none"
         id="path4815"
         inkscape:connector-curvature="0" /><text
         xml:space="preserve"
         style="font-size:7.19999981px;font-style:normal;font-variant:normal;font-weight:bold;font-stretch:normal;line-height:125%;letter-spacing:0px;word-spacing:0px;fill:#000000;fill-opacity:1;stroke:none;font-family:Droid Sans;-inkscape-font-specification:Sans Bold"
         x="205.48141"
         y="253.8275"
         id="text4817"
         sodipodi:linespacing="125%"
         transform="matrix(0,1,1,0,0,0)"><tspan
           sodipodi:role="line"
           id="tspan4819"
           x="205.48141"
           y="253.8275">v치nek</tspan></text>
</g><g
       id="g4859"
       transform="matrix(0.73856851,0,0,0.73856851,82.101603,137.82844)"><path
         inkscape:connector-curvature="0"
         id="path312"
         style="fill:none;stroke:#000000;stroke-width:0.65979397;stroke-linecap:butt;stroke-linejoin:miter;stroke-miterlimit:10;stroke-opacity:1;stroke-dasharray:none"
         d="m 313.60314,41.9825 -4.339,0.14" /><path
         inkscape:connector-curvature="0"
         id="path486"
         style="fill:#ffffff;fill-opacity:1;fill-rule:evenodd;stroke:none"
         d="m 325.25214,50.9605 -7.703,-3.069 0,-18.474 7.703,-3.069" /><path
         inkscape:connector-curvature="0"
         id="path488"
         style="fill:none;stroke:#000000;stroke-width:0.65979397;stroke-linecap:butt;stroke-linejoin:miter;stroke-miterlimit:10;stroke-opacity:1;stroke-dasharray:none"
         d="m 325.25214,50.9605 -7.703,-3.069 0,-18.474 7.703,-3.069 0,24.612 z" /><path
         inkscape:connector-curvature="0"
         id="path490"
         style="fill:#ffffff;fill-opacity:1;fill-rule:evenodd;stroke:none"
         d="m 317.54914,29.4175 -1.503,6.137 0,18.475 1.503,-6.138" /><path
         inkscape:connector-curvature="0"
         id="path492"
         style="fill:none;stroke:#000000;stroke-width:0.65979397;stroke-linecap:butt;stroke-linejoin:miter;stroke-miterlimit:10;stroke-opacity:1;stroke-dasharray:none"
         d="m 317.54914,29.4175 -1.503,6.137 0,18.475 1.503,-6.138" /><path
         inkscape:connector-curvature="0"
         id="path500"
         style="fill:none;stroke:#000000;stroke-width:0.65979397;stroke-linecap:butt;stroke-linejoin:miter;stroke-miterlimit:10;stroke-opacity:1;stroke-dasharray:none"
         d="m 317.92414,22.7165 2.005,3.882" /><path
         inkscape:connector-curvature="0"
         id="path502"
         style="fill:none;stroke:#000000;stroke-width:0.65979397;stroke-linecap:butt;stroke-linejoin:miter;stroke-miterlimit:10;stroke-opacity:1;stroke-dasharray:none"
         d="m 312.16314,28.1015 3.507,2.505" /><path
         inkscape:connector-curvature="0"
         id="path504"
         style="fill:none;stroke:#000000;stroke-width:0.65979397;stroke-linecap:butt;stroke-linejoin:miter;stroke-miterlimit:10;stroke-opacity:1;stroke-dasharray:none"
         d="m 310.28414,35.3665 3.883,0.626" /><path
         inkscape:connector-curvature="0"
         id="path506"
         style="fill:none;stroke:#000000;stroke-width:0.65979397;stroke-linecap:butt;stroke-linejoin:miter;stroke-miterlimit:10;stroke-opacity:1;stroke-dasharray:none"
         d="m 317.92514,61.6755 2.004,-3.883" /><path
         inkscape:connector-curvature="0"
         id="path508"
         style="fill:none;stroke:#000000;stroke-width:0.65979397;stroke-linecap:butt;stroke-linejoin:miter;stroke-miterlimit:10;stroke-opacity:1;stroke-dasharray:none"
         d="m 311.78714,57.7925 3.508,-2.505" /><path
         inkscape:connector-curvature="0"
         id="path510"
         style="fill:none;stroke:#000000;stroke-width:0.65979397;stroke-linecap:butt;stroke-linejoin:miter;stroke-miterlimit:10;stroke-opacity:1;stroke-dasharray:none"
         d="m 310.28414,49.0245 3.883,-0.626" /><path
         inkscape:connector-curvature="0"
         id="path512"
         style="fill:#ffffff;fill-opacity:1;fill-rule:evenodd;stroke:none"
         d="m 316.04414,54.1255 7.701,3.022 1.51,-6.19" /><path
         inkscape:connector-curvature="0"
         id="path514"
         style="fill:none;stroke:#000000;stroke-width:0.65979397;stroke-linecap:butt;stroke-linejoin:miter;stroke-miterlimit:10;stroke-opacity:1;stroke-dasharray:none"
         d="m 316.04414,54.1255 7.701,3.022 1.51,-6.19" /><text
         transform="matrix(0,1,1,0,0,0)"
         sodipodi:linespacing="125%"
         id="text4855"
         y="323.32367"
         x="28.733988"
         style="font-size:19.20000076px;font-style:normal;font-variant:normal;font-weight:bold;font-stretch:normal;line-height:125%;letter-spacing:0px;word-spacing:0px;fill:#000000;fill-opacity:1;stroke:none;font-family:Droid Sans;-inkscape-font-specification:Sans Bold"
         xml:space="preserve"><tspan
           style="font-size:6.4000001px"
           y="323.32367"
           x="28.733988"
           id="tspan4857"
           sodipodi:role="line">poklad</tspan></text>
</g></g></svg>